<svg width="200" height="200" viewBox="0 0 200 200" fill="none" xmlns="http://www.w3.org/2000/svg">
	<g id="ItsTime2CodeLight">
		<g id="ItsTime2CodeLightGroup">
			<g id="numberLight" filter="url(#filter0_d)">
				<path id="Vector"
					d="M62.9164 158.171C61.828 157.712 60.2733 156.639 58.2521 154.951C56.2309 153.265 54.9093 151.731 54.2874 150.351C54.132 150.198 54.0542 149.737 54.0542 148.971C54.0542 147.897 54.2874 146.671 54.7539 145.29C55.2203 143.91 55.6867 143.22 56.1531 143.22C56.6196 143.68 57.8634 142.531 59.8846 139.77C62.0613 136.856 63.2273 135.016 63.3828 134.249C63.5383 133.636 64.0047 133.1 64.7821 132.639C65.715 132.026 66.3369 131.642 66.6478 131.49C67.4252 130.263 68.5136 128.959 69.9128 127.579C71.4676 126.046 72.4782 124.972 72.9446 124.358C73.5666 123.592 74.7326 122.365 76.4428 120.678C78.1531 118.838 79.7079 117.228 81.1072 115.848C84.8386 112.474 87.5594 109.867 89.2696 108.027C97.3544 99.4397 101.552 94.4559 101.863 93.0758C102.019 92.9224 102.33 92.6157 102.796 92.1557C103.263 91.6956 103.884 91.2356 104.662 90.7755C106.994 89.2421 109.171 87.4786 111.192 85.485C111.347 84.4116 112.202 82.7248 113.757 80.4246C115.312 78.1244 116.867 76.2075 118.421 74.6741C119.665 72.9872 120.754 71.1471 121.686 69.1535C122.775 67.0067 123.552 65.1665 124.018 63.633L124.485 61.5628C124.485 60.9494 124.096 60.4894 123.319 60.1827C122.542 59.7227 121.609 59.3393 120.52 59.0326C119.587 58.7259 118.81 58.4959 118.188 58.3426C114.612 57.2691 111.503 56.7324 108.86 56.7324C103.107 56.7324 97.199 58.8026 91.1354 62.943C88.9588 63.403 87.2485 63.9397 86.0047 64.5532C83.2061 65.4732 81.4181 65.8566 80.6408 65.7032C80.1743 65.5499 79.4747 64.8598 78.5418 63.633C77.6089 62.4063 76.7538 61.4095 75.9764 60.6427L73.6443 55.8123L80.874 51.902C90.5135 45.6147 98.9093 42.4711 106.061 42.4711C108.549 42.4711 110.725 42.7778 112.591 43.3912C113.991 43.3912 115.39 43.5445 116.789 43.8512C118.188 44.1579 119.043 44.3879 119.354 44.5413C121.22 44.3879 123.63 45.8447 126.584 48.9117C129.693 51.9786 132.026 55.1223 133.581 58.3426C135.446 61.1028 136.379 63.9397 136.379 66.8533C136.379 71.4538 133.892 77.3576 128.916 84.565C125.496 88.552 120.287 94.3026 113.291 101.817C106.294 109.331 102.019 113.701 100.464 114.928C98.5983 115.848 94.0895 120.295 86.9375 128.269C79.7856 136.243 76.5206 140.23 77.1425 140.23V140.69C77.1425 139.77 81.9623 138.62 91.6018 137.24C101.397 135.707 108.937 134.94 114.224 134.94C115.934 134.94 117.1 135.093 117.722 135.4C118.033 136.013 118.266 136.32 118.421 136.32C118.733 136.166 118.888 136.013 118.888 135.859C119.043 135.246 120.132 134.94 122.153 134.94C125.729 134.94 129.926 135.629 134.747 137.01C135.213 137.163 135.991 137.393 137.079 137.7C138.323 138.007 139.177 138.314 139.644 138.62C140.11 138.927 140.343 139.233 140.343 139.54C140.499 139.693 140.733 140.154 141.043 140.92C141.509 141.534 142.132 142.3 142.91 143.22C144.309 144.293 145.008 145.214 145.008 145.981C145.008 147.054 143.686 147.591 141.043 147.591C139.177 147.591 136.068 147.208 131.715 146.441C127.672 146.441 124.33 146.671 121.686 147.131C121.22 147.437 119.743 147.667 117.256 147.821C114.923 147.821 113.135 147.821 111.891 147.821C111.114 147.667 110.026 147.591 108.627 147.591C105.051 147.591 99.9976 148.664 93.4676 150.811C90.0471 152.192 84.4499 153.878 76.6761 155.872C68.9022 157.865 64.3157 158.632 62.9164 158.171Z"
					fill="#E94B3C" />
			</g>
			<g id="textLight" filter="url(#filter1_d)">
				<g id="CodeLight">
					<path id="Vector_2"
						d="M45.7696 132.122C43.9869 132.122 43.0956 131.33 43.0956 129.746C43.0956 128.669 43.5299 127.018 44.3987 124.791L45.0774 123.027C45.557 121.805 45.7968 120.819 45.7968 120.068C45.7968 118.783 45.385 118.05 44.5616 117.869C44.4439 117.833 44.3851 117.724 44.3851 117.544C44.3851 117.362 44.4077 117.195 44.453 117.041C44.4982 116.878 44.5616 116.724 44.643 116.58C44.8511 116.245 45.1045 116.068 45.4031 116.05C47.0048 115.951 48.2717 114.584 49.2038 111.951C49.4753 111.191 49.697 110.467 49.8689 109.779C49.8689 109.779 50.0228 109.155 50.3304 107.906C50.8191 105.915 51.4344 104.517 52.1765 103.712C52.819 103.006 53.6198 102.653 54.5791 102.653C55.9274 102.653 56.6966 102.761 56.8866 102.979C56.959 103.06 56.9952 103.155 56.9952 103.264C56.9952 103.761 56.5879 104.01 55.7736 104.01C55.3211 104.01 54.932 104.214 54.6062 104.621C54.2805 105.019 53.9909 105.535 53.7374 106.168C53.4841 106.802 53.2578 107.508 53.0588 108.286L52.4887 110.593C51.3756 115.091 49.5069 117.385 46.8827 117.476C47.9777 117.919 48.5251 118.887 48.5251 120.38C48.5251 121.394 48.2446 122.588 47.6835 123.964C46.5886 126.633 46.0411 128.52 46.0411 129.624C46.0411 130.402 46.3081 130.791 46.842 130.791C47.5116 130.791 47.8464 130.991 47.8464 131.388C47.8464 131.877 47.1542 132.122 45.7696 132.122ZM68.1008 121.697L68.1144 121.303C68.2139 118.598 68.8971 116.041 70.164 113.634C71.3313 111.435 72.8018 109.657 74.5755 108.299C76.331 106.96 78.0414 106.291 79.7064 106.291C80.9733 106.291 81.9732 106.729 82.7062 107.607C83.3306 108.367 83.6428 109.299 83.6428 110.403C83.6428 111.725 83.1587 113.028 82.1904 114.313C81.6293 115.055 81.0321 115.588 80.3987 115.914C80.1001 116.077 79.8195 116.159 79.5571 116.159C79.3037 116.159 79.0684 116.104 78.8513 115.996C78.634 115.887 78.444 115.751 78.2812 115.588C77.9463 115.235 77.7789 114.919 77.7789 114.638C77.7789 114.358 77.8513 114.163 77.9961 114.055C79.4801 112.987 80.4892 111.888 81.0231 110.756C81.2312 110.322 81.3353 109.897 81.3353 109.48C81.3353 108.603 80.919 108.164 80.0865 108.164C78.7834 108.164 77.4396 108.874 76.055 110.295C74.761 111.607 73.6751 113.254 72.7973 115.235C71.8833 117.272 71.3992 119.14 71.3449 120.842L71.3313 121.357C71.3313 123.394 71.7611 124.728 72.6208 125.362C72.9286 125.588 73.295 125.701 73.7203 125.701C74.1547 125.701 74.5619 125.647 74.942 125.538C75.3221 125.43 75.7022 125.28 76.0822 125.09C76.6975 124.774 77.4848 124.226 78.444 123.448C78.7336 123.222 78.9734 123.253 79.1635 123.543C79.3263 123.778 79.4078 124.049 79.4078 124.357C79.4078 124.873 79.3354 125.226 79.1906 125.416C79.0549 125.597 78.815 125.815 78.4712 126.068C78.1364 126.321 77.7246 126.556 77.236 126.774C76.0957 127.28 74.9782 127.534 73.8832 127.534C72.7883 127.534 71.9059 127.402 71.2364 127.14C70.5667 126.869 70.0011 126.484 69.5396 125.986C68.5804 124.937 68.1008 123.507 68.1008 121.697ZM86.2229 126.475C85.8428 126.113 85.5442 125.656 85.3271 125.104C85.1099 124.543 84.9967 123.883 84.9877 123.122C84.9787 122.362 85.0692 121.593 85.2592 120.815C85.4583 120.036 85.7343 119.285 86.0872 118.561C86.4492 117.837 86.879 117.159 87.3767 116.525C87.8835 115.892 88.44 115.34 89.0463 114.869C90.3675 113.856 91.7384 113.349 93.1591 113.349C95.0233 113.349 96.2857 114.168 96.9462 115.806C97.4168 116.991 97.444 118.425 97.0277 120.109C96.6476 121.656 95.9509 123.077 94.9374 124.371C93.9329 125.665 92.7474 126.584 91.381 127.127C90.6933 127.398 90.0146 127.534 89.3449 127.534C88.6843 127.534 88.0916 127.448 87.5667 127.276C87.051 127.103 86.603 126.837 86.2229 126.475ZM88.8155 119.892C88.5441 120.561 88.3269 121.249 88.164 121.955C88.0102 122.661 87.9378 123.33 87.9468 123.964C87.9559 124.588 88.0509 125.081 88.2319 125.443C88.4219 125.796 88.725 125.973 89.1413 125.973C89.5576 125.973 89.9648 125.832 90.3629 125.552C90.7702 125.263 91.1638 124.883 91.5438 124.412C91.9239 123.941 92.2814 123.398 92.6162 122.783C92.951 122.168 93.2452 121.525 93.4985 120.856C94.0505 119.398 94.3174 118.104 94.2994 116.973C94.2994 115.978 94.0957 115.344 93.6886 115.073C93.5256 114.964 93.2949 114.91 92.9963 114.91C92.7067 114.91 92.3719 115.046 91.9918 115.317C91.6117 115.58 91.2316 115.937 90.8517 116.389C90.4716 116.842 90.1051 117.371 89.7521 117.978C89.3992 118.584 89.087 119.222 88.8155 119.892ZM115.191 124.656C115.381 124.656 115.476 124.755 115.476 124.954C115.476 125.733 115.073 126.402 114.268 126.964C113.734 127.344 113.227 127.534 112.747 127.534C112.277 127.534 111.901 127.479 111.621 127.371C111.34 127.263 111.087 127.09 110.861 126.855C110.354 126.312 110.1 125.565 110.1 124.615C110.1 124.425 110.137 124.122 110.209 123.706C109.476 124.837 108.847 125.633 108.322 126.095C107.263 127.054 106.227 127.534 105.214 127.534C103.612 127.534 102.562 126.81 102.065 125.362C101.884 124.828 101.793 124.158 101.793 123.353C101.793 122.547 101.915 121.733 102.16 120.91C102.404 120.086 102.734 119.303 103.151 118.561C103.576 117.819 104.065 117.131 104.617 116.498C105.178 115.856 105.766 115.299 106.381 114.829C107.702 113.842 108.897 113.349 109.965 113.349C111.033 113.349 111.888 113.783 112.53 114.652C114.105 109.259 115.29 106.078 116.086 105.11C116.421 104.711 116.774 104.512 117.145 104.512C117.761 104.512 118.226 104.689 118.544 105.042C118.643 105.159 118.693 105.277 118.693 105.395C118.693 105.512 118.62 105.73 118.476 106.046C118.331 106.363 118.118 106.874 117.837 107.58C117.032 109.707 116.467 111.263 116.141 112.25C115.308 114.774 114.747 116.512 114.458 117.462L113.711 119.973C113.069 122.208 112.747 123.629 112.747 124.235C112.747 124.842 112.969 125.144 113.412 125.144C113.82 125.144 114.145 125.09 114.39 124.981L114.906 124.737C115.005 124.683 115.1 124.656 115.191 124.656ZM105.865 125.497C106.797 125.497 107.865 124.588 109.069 122.769C110.327 120.887 111.204 118.837 111.702 116.62C111.666 116.005 111.408 115.552 110.928 115.263C110.766 115.164 110.517 115.113 110.182 115.113C109.856 115.113 109.471 115.235 109.028 115.48C108.594 115.715 108.168 116.036 107.752 116.444C107.345 116.851 106.96 117.33 106.598 117.883C106.245 118.425 105.938 119.005 105.675 119.62C105.105 120.959 104.82 122.276 104.82 123.57C104.82 124.855 105.169 125.497 105.865 125.497ZM119.63 122.647C119.666 121.859 119.798 121.109 120.024 120.394C120.25 119.67 120.554 118.973 120.934 118.303C121.314 117.625 121.757 116.987 122.263 116.389C122.779 115.783 123.336 115.254 123.933 114.802C125.227 113.833 126.535 113.349 127.856 113.349C129.403 113.349 130.435 113.987 130.951 115.263C131.132 115.697 131.218 116.213 131.209 116.81C131.2 117.398 131.087 117.946 130.87 118.452C130.653 118.951 130.349 119.408 129.96 119.824C129.58 120.231 129.123 120.598 128.589 120.924C128.064 121.249 127.49 121.525 126.865 121.751C125.58 122.204 124.205 122.439 122.739 122.457C122.703 122.584 122.68 122.774 122.671 123.027C122.662 123.28 122.689 123.565 122.752 123.883C122.816 124.19 122.924 124.466 123.078 124.71C123.404 125.253 123.874 125.525 124.49 125.525C125.54 125.525 126.562 125.217 127.558 124.602C127.91 124.394 128.195 124.181 128.412 123.964C128.639 123.737 128.833 123.625 128.996 123.625C129.159 123.625 129.3 123.724 129.417 123.923C129.544 124.113 129.607 124.33 129.607 124.574C129.607 125.054 129.471 125.47 129.2 125.823C128.06 126.964 126.363 127.534 124.11 127.534C122.779 127.534 121.712 127.135 120.907 126.339C120.002 125.434 119.576 124.204 119.63 122.647ZM127.558 115.154C126.607 115.154 125.694 115.806 124.816 117.109C124.073 118.231 123.477 119.561 123.024 121.1C124.535 120.946 125.847 120.348 126.96 119.308C127.983 118.33 128.494 117.394 128.494 116.498C128.494 115.602 128.182 115.154 127.558 115.154ZM143.129 131.511C143.129 131.013 143.536 130.764 144.351 130.764C145.446 130.764 146.346 129.339 147.052 126.489L147.636 124.181C148.748 119.683 150.617 117.389 153.241 117.299C152.146 116.856 151.599 115.887 151.599 114.394C151.599 113.381 151.884 112.186 152.454 110.811C153.54 108.141 154.083 106.254 154.083 105.15C154.083 104.372 153.816 103.983 153.282 103.983C152.612 103.983 152.277 103.784 152.277 103.386C152.277 102.897 152.97 102.653 154.355 102.653C156.137 102.653 157.029 103.445 157.029 105.028C157.029 106.105 156.594 107.752 155.725 109.969L155.046 111.747C154.567 112.969 154.327 113.955 154.327 114.707C154.327 115.991 154.739 116.724 155.562 116.905C155.68 116.941 155.739 117.05 155.739 117.231C155.739 117.412 155.717 117.584 155.671 117.747C155.626 117.901 155.558 118.05 155.467 118.195C155.268 118.53 155.019 118.706 154.721 118.724C152.721 118.842 151.214 121.005 150.201 125.212C150.065 125.764 149.929 126.317 149.794 126.869C149.658 127.421 149.5 127.954 149.318 128.47C149.147 128.986 148.948 129.466 148.721 129.909C148.504 130.353 148.246 130.737 147.948 131.063C147.296 131.768 146.495 132.122 145.545 132.122C144.197 132.122 143.427 132.013 143.237 131.796C143.165 131.714 143.129 131.619 143.129 131.511Z"
						fill="#040303" />
				</g>
				<g id="ItsTimeLight">
					<path id="Vector_3"
						d="M42.6748 87.8122C44.2403 86.6629 45.8194 83.7039 47.4121 78.9349C48.3351 76.1568 48.9776 73.6501 49.3395 71.415C49.4391 70.7906 49.4889 70.311 49.4889 69.9761C49.1178 69.9943 48.774 70.0938 48.4572 70.2748L47.4392 70.8585C47.1587 71.0123 46.7832 70.8901 46.3126 70.492C45.8511 70.0938 45.6384 69.759 45.6746 69.4875C45.7199 69.207 45.8737 68.9808 46.1361 68.8088C46.4076 68.6278 46.7198 68.474 47.0727 68.3473C47.8148 68.0849 48.4347 67.9537 48.9324 67.9537C49.4391 67.9537 49.8826 67.9944 50.2626 68.0758C50.6517 68.1482 51.0046 68.2749 51.3213 68.4559C52.0453 68.8721 52.4163 69.4694 52.4344 70.2477C52.4706 71.596 52.0136 73.8854 51.0634 77.116C49.5612 82.2288 47.7967 85.8214 45.7696 87.8937C45.2176 88.4637 44.643 88.8528 44.0458 89.061C43.8829 89.1243 43.7155 89.156 43.5435 89.156C43.3806 89.156 43.2313 89.1243 43.0956 89.061C42.9599 89.0067 42.8467 88.9343 42.7562 88.8438C42.5662 88.6719 42.4712 88.4819 42.4712 88.2737C42.4712 88.0656 42.5391 87.9117 42.6748 87.8122ZM63.1453 85.5046C63.4076 85.5046 63.5389 85.6811 63.5389 86.034C63.5389 86.3327 63.4484 86.6222 63.2674 86.9027C63.0231 87.4276 62.5344 87.9253 61.8015 88.3958C60.9689 88.9297 60.1318 89.1968 59.2903 89.1968C57.8334 89.1968 56.9103 88.5452 56.5212 87.2421C56.0597 85.6947 56.752 82.4143 58.598 77.4011C57.5574 77.3106 56.9917 77.1296 56.9012 76.8581C56.8741 76.7767 56.8605 76.6907 56.8605 76.6002C56.8605 76.5006 56.9012 76.3876 56.9827 76.2609C57.0732 76.1341 57.1863 76.012 57.3221 75.8944C57.6388 75.6319 57.96 75.5007 58.2858 75.5007H59.3581C60.3354 73.2113 61.0323 71.9082 61.4485 71.5914C61.6476 71.4466 61.8693 71.3743 62.1136 71.3743C62.358 71.3743 62.5615 71.406 62.7245 71.4693C62.8873 71.5327 63.0321 71.6231 63.1588 71.7408C63.4484 72.0122 63.5932 72.3154 63.5932 72.6502C63.5932 72.8312 63.5389 73.0393 63.4303 73.2746L62.4258 75.46H62.7516C63.3127 75.46 63.7651 75.4554 64.109 75.4464C64.109 75.4464 64.3669 75.4419 64.8827 75.4328C65.0546 75.4238 65.2673 75.4193 65.5207 75.4193C65.7831 75.4193 65.9143 75.5143 65.9143 75.7043C65.9143 76.8988 64.5026 77.4961 61.6792 77.4961H61.5707L60.6476 79.8851C59.607 82.7084 59.0866 84.6857 59.0866 85.8168C59.0866 86.1336 59.1591 86.3824 59.3039 86.5634C59.4487 86.7354 59.7201 86.8213 60.1183 86.8213C60.5164 86.8213 60.8784 86.7534 61.2042 86.6177C61.53 86.4819 61.815 86.3327 62.0593 86.1697C62.3036 85.9978 62.5118 85.844 62.6837 85.7083C62.8647 85.5725 63.0185 85.5046 63.1453 85.5046ZM66.947 86.672C66.947 86.3914 67.0058 86.1336 67.1235 85.8983C67.2501 85.654 67.404 85.4504 67.5849 85.2875C67.965 84.9345 68.3632 84.7581 68.7795 84.7581C69.1415 84.7581 69.3224 84.9436 69.3224 85.3146C69.3224 86.2558 69.6346 86.9118 70.259 87.2828C70.4853 87.4185 70.7205 87.4864 70.9649 87.4864C71.2092 87.4864 71.4173 87.4593 71.5893 87.4049C71.7612 87.3507 71.9195 87.2647 72.0643 87.1471C72.3901 86.8846 72.553 86.5724 72.553 86.2105C72.553 85.8485 72.4716 85.5182 72.3086 85.2196C72.1458 84.9119 71.9422 84.5907 71.6978 84.2558L70.9242 83.17C69.8382 81.7221 69.2953 80.3873 69.2953 79.1656C69.2953 78.1521 69.7251 77.2337 70.5848 76.4102C71.5621 75.4781 72.8154 75.0121 74.3447 75.0121C75.684 75.0121 76.7292 75.3423 77.4803 76.0029C78.0957 76.5368 78.4033 77.1476 78.4033 77.8354C78.4033 78.5503 78.1318 79.1204 77.5889 79.5457C77.1002 79.9258 76.6116 80.066 76.1229 79.9665C75.9057 79.9212 75.7383 79.8127 75.6207 79.6408C75.503 79.4598 75.4804 79.2561 75.5528 79.0299C75.6252 78.8037 75.6614 78.5684 75.6614 78.3241C75.6614 78.0798 75.6161 77.8535 75.5256 77.6454C75.4352 77.4372 75.313 77.2608 75.1592 77.116C74.8425 76.8174 74.5076 76.668 74.1547 76.668C73.8108 76.668 73.5258 76.7088 73.2995 76.7902C73.0734 76.8626 72.8742 76.9712 72.7023 77.116C72.3494 77.4418 72.1729 77.8445 72.1729 78.3241C72.1729 78.7946 72.2544 79.2019 72.4172 79.5457C72.5802 79.8896 72.7792 80.2334 73.0145 80.5773C73.2588 80.9212 73.5212 81.2696 73.8018 81.6226C74.0823 81.9754 74.3402 82.3465 74.5755 82.7356C75.1456 83.6496 75.4307 84.4549 75.4307 85.1517C75.4307 85.8395 75.2859 86.4186 74.9963 86.8892C74.7067 87.3507 74.3312 87.7489 73.8697 88.0836C72.8833 88.8167 71.7793 89.1832 70.5576 89.1832C69.3903 89.1832 68.4673 88.9026 67.7886 88.3415C67.2275 87.871 66.947 87.3145 66.947 86.672ZM108.227 70.5056C107.965 70.6956 107.657 70.8404 107.304 70.9399C106.96 71.0304 106.494 71.0757 105.906 71.0757C105.327 71.0757 104.571 71.0349 103.639 70.9535C103.422 71.5417 103.2 72.2294 102.974 73.0167L101.413 78.3377C99.4856 84.7083 97.4315 88.2828 95.2507 89.061C95.0968 89.1243 94.8977 89.156 94.6534 89.156C94.4181 89.156 94.2236 89.1243 94.0697 89.061C93.9249 89.0067 93.8028 88.9343 93.7032 88.8438C93.5041 88.6809 93.4046 88.518 93.4046 88.3551C93.4046 88.1923 93.4453 88.0836 93.5267 88.0294L93.8797 87.8122C95.1828 86.9615 96.3773 84.6992 97.4632 81.0253L98.4405 77.7133C99.3182 74.7361 100.137 72.3968 100.897 70.6956C100.182 70.6322 99.6395 70.6005 99.2685 70.6005C98.2007 70.6005 97.4315 70.7499 96.9609 71.0485C96.4995 71.3471 96.1737 71.6729 95.9836 72.0258C95.8026 72.3697 95.7076 72.6095 95.6985 72.7453C95.6714 72.9986 95.59 73.1615 95.4542 73.2339C95.3185 73.2972 95.1511 73.3289 94.952 73.3289C94.762 73.3289 94.5629 73.261 94.3548 73.1253C94.1466 72.9805 93.9747 72.7995 93.8389 72.5823C93.5493 72.1389 93.4363 71.6412 93.4996 71.0892C93.5629 70.5282 93.7439 70.0486 94.0426 69.6504C94.3503 69.2432 94.7122 68.9129 95.1285 68.6595C95.8977 68.189 96.7076 67.9537 97.5582 67.9537C98.4178 67.9537 99.2278 67.9989 99.9879 68.0894C100.757 68.1708 101.522 68.2659 102.282 68.3744C104.3 68.646 105.585 68.7817 106.137 68.7817C106.689 68.7817 107.096 68.75 107.359 68.6866C107.63 68.6233 107.861 68.5283 108.051 68.4016C108.241 68.2749 108.372 68.1934 108.444 68.1573C108.526 68.1121 108.653 68.0894 108.824 68.0894C109.096 68.0894 109.214 68.2975 109.177 68.7138C109.141 69.121 109.042 69.4739 108.879 69.7726C108.716 70.0622 108.499 70.3065 108.227 70.5056ZM115.463 71.8358C115.264 72.0439 115.038 72.2158 114.784 72.3516C114.531 72.4783 114.264 72.5597 113.984 72.5959C113.703 72.6231 113.436 72.5778 113.183 72.4602C112.938 72.3426 112.726 72.1751 112.545 71.9579C112.156 71.5055 111.961 71.0485 111.961 70.587C111.961 70.1255 112.034 69.7816 112.178 69.5554C112.332 69.3201 112.522 69.13 112.748 68.9853C113.183 68.7047 113.59 68.5645 113.97 68.5645C114.359 68.5645 114.658 68.5917 114.866 68.646C115.083 68.7002 115.282 68.7907 115.463 68.9174C115.907 69.2161 116.128 69.5826 116.128 70.0169C116.128 70.4422 116.065 70.7996 115.938 71.0892C115.821 71.3697 115.662 71.6186 115.463 71.8358ZM112.681 86.5227C112.916 86.5227 113.033 86.6765 113.033 86.9842C113.033 87.3914 112.848 87.8122 112.477 88.2466C111.934 88.88 111.205 89.1968 110.292 89.1968C109.242 89.1968 108.522 88.7714 108.133 87.9208C107.988 87.6222 107.916 87.2602 107.916 86.8349C107.916 86.4096 107.988 85.939 108.133 85.4232C108.287 84.8983 108.473 84.3509 108.69 83.7808C108.916 83.2016 109.16 82.6179 109.423 82.0297L110.142 80.3195C110.667 79.0435 110.929 78.2019 110.929 77.7947C110.929 77.3875 110.884 77.1205 110.794 76.9938C110.712 76.8581 110.622 76.7541 110.522 76.6816L110.251 76.4916C110.16 76.4283 110.115 76.3197 110.115 76.1659C110.115 76.0029 110.174 75.8491 110.292 75.7043C110.418 75.5595 110.581 75.4328 110.78 75.3243C111.187 75.1161 111.662 75.0121 112.205 75.0121C113.536 75.0121 114.201 75.3605 114.201 76.0572C114.201 76.8717 113.988 77.8037 113.563 78.8534C113.138 79.8941 112.776 80.7357 112.477 81.3782L111.662 83.2514C111.065 84.6269 110.767 85.6178 110.767 86.224C110.767 86.6222 110.966 86.8213 111.364 86.8213C111.753 86.8213 112.047 86.7715 112.246 86.672C112.445 86.5724 112.59 86.5227 112.681 86.5227ZM128.685 77.5775C128.161 77.5775 127.201 78.3377 125.808 79.8579C124.767 81.0434 124.011 81.9348 123.541 82.532L122.319 84.0794C121.794 85.0748 121.382 85.9028 121.083 86.5634L120.351 88.138C120.161 88.5271 119.993 88.8031 119.849 88.966C119.713 89.1198 119.523 89.1968 119.279 89.1968C119.043 89.1968 118.812 89.1515 118.586 89.061C118.369 88.9795 118.179 88.871 118.016 88.7352C117.672 88.4456 117.5 88.1289 117.5 87.785C117.5 87.6493 117.6 87.3823 117.799 86.9842L118.315 85.8847C118.477 85.5589 118.668 85.1427 118.885 84.6359L119.645 82.7763C120.713 80.1068 121.246 78.3829 121.246 77.6046C121.246 77.1884 121.111 76.8807 120.839 76.6816L120.568 76.4916C120.477 76.4283 120.433 76.3197 120.433 76.1659C120.433 76.0029 120.491 75.8491 120.609 75.7043C120.735 75.5595 120.898 75.4328 121.097 75.3243C121.504 75.1161 121.912 75.0121 122.319 75.0121C122.735 75.0121 123.061 75.0573 123.297 75.1478C123.531 75.2383 123.735 75.3605 123.907 75.5143C124.251 75.831 124.423 76.1613 124.423 76.5052C124.423 76.849 124.378 77.1975 124.287 77.5504C124.197 77.8942 124.083 78.2472 123.948 78.6091C123.812 78.962 123.667 79.306 123.514 79.6408C123.151 80.419 122.925 80.8986 122.835 81.0795C122.754 81.2515 122.731 81.3148 122.767 81.2696C124.423 79.1249 125.419 77.8581 125.753 77.469C126.45 76.6636 126.993 76.1115 127.382 75.8129C128.097 75.279 128.772 75.0121 129.405 75.0121C130.047 75.0121 130.558 75.2111 130.938 75.6093C131.318 76.0075 131.508 76.5324 131.508 77.1839C131.508 77.754 131.364 78.4236 131.074 79.1928C130.785 79.962 130.59 80.5004 130.49 80.8081L132.486 78.1748L133.599 76.8446C134.269 76.0934 134.856 75.6002 135.364 75.3649C135.87 75.1297 136.282 75.0121 136.599 75.0121C136.924 75.0121 137.241 75.0709 137.549 75.1885C137.866 75.3062 138.133 75.4736 138.35 75.6907C138.811 76.1341 139.042 76.7224 139.042 77.4554C139.042 78.1612 138.879 78.8851 138.554 79.6272C138.228 80.3692 137.942 80.98 137.698 81.4596C137.454 81.9302 137.219 82.4053 136.992 82.8849C136.332 84.3237 136.002 85.3915 136.002 86.0883C136.002 86.577 136.201 86.8213 136.599 86.8213C136.978 86.8213 137.323 86.7399 137.63 86.577C137.947 86.4141 138.151 86.3327 138.241 86.3327C138.431 86.3327 138.526 86.4277 138.526 86.6177C138.526 87.4231 138.114 88.0972 137.291 88.6402C136.739 89.0112 136.233 89.1968 135.771 89.1968C135.318 89.1968 134.951 89.1424 134.671 89.0338C134.391 88.9253 134.138 88.7533 133.911 88.518C133.405 87.9932 133.151 87.3371 133.151 86.5498C133.151 85.7626 133.25 85.0386 133.45 84.378C133.649 83.7174 133.884 83.0795 134.155 82.4641C134.427 81.8397 134.698 81.2696 134.97 80.7538C135.25 80.229 135.463 79.8127 135.608 79.505C135.897 78.8716 136.043 78.4055 136.043 78.1069C136.043 77.754 135.856 77.5775 135.486 77.5775C134.997 77.5775 134.119 78.3874 132.853 80.0073C131.894 81.2651 131.228 82.17 130.857 82.722L129.921 84.0794C129.395 85.0748 128.993 85.9028 128.712 86.5634L128.02 88.138C127.848 88.5271 127.699 88.8031 127.572 88.966C127.446 89.1198 127.269 89.1968 127.043 89.1968C126.816 89.1968 126.595 89.1605 126.378 89.0881C126.169 89.0158 125.988 88.9207 125.835 88.8031C125.482 88.5406 125.305 88.2646 125.305 87.9751C125.305 87.6765 125.4 87.2738 125.59 86.767C125.789 86.2512 126.034 85.6766 126.324 85.0431L128.224 81.0253C128.902 79.5321 129.242 78.5865 129.242 78.1883C129.242 77.7811 129.056 77.5775 128.685 77.5775ZM130.029 81.4053C130.038 81.4053 130.043 81.4008 130.043 81.3917L130.056 81.3646C130.038 81.3827 130.029 81.3963 130.029 81.4053ZM143.618 84.3101C143.653 83.5229 143.785 82.7717 144.011 82.0569C144.237 81.333 144.541 80.6361 144.921 79.9665C145.3 79.2878 145.744 78.6498 146.251 78.0526C146.767 77.4463 147.323 76.9169 147.921 76.4645C149.215 75.4962 150.522 75.0121 151.843 75.0121C153.391 75.0121 154.422 75.65 154.938 76.926C155.119 77.3603 155.205 77.8761 155.196 78.4734C155.187 79.0616 155.073 79.609 154.856 80.1158C154.639 80.6135 154.336 81.0705 153.947 81.4868C153.567 81.894 153.111 82.2605 152.576 82.5863C152.051 82.9121 151.477 83.188 150.853 83.4143C149.568 83.8667 148.192 84.102 146.726 84.1201C146.69 84.2468 146.667 84.4368 146.658 84.6902C146.649 84.9436 146.676 85.2287 146.74 85.5453C146.803 85.8531 146.911 86.129 147.065 86.3734C147.391 86.9163 147.862 87.1878 148.477 87.1878C149.527 87.1878 150.549 86.8802 151.544 86.2648C151.897 86.0566 152.182 85.844 152.4 85.6268C152.626 85.4005 152.821 85.2875 152.983 85.2875C153.146 85.2875 153.287 85.387 153.404 85.5861C153.531 85.7761 153.594 85.9933 153.594 86.2376C153.594 86.7172 153.459 87.1335 153.187 87.4864C152.047 88.6266 150.35 89.1968 148.097 89.1968C146.767 89.1968 145.699 88.7985 144.894 88.0022C143.989 87.0973 143.563 85.8666 143.618 84.3101ZM151.544 76.8174C150.595 76.8174 149.68 77.469 148.802 78.7721C148.06 79.8941 147.463 81.2243 147.011 82.7627C148.522 82.6089 149.834 82.0117 150.948 80.971C151.97 79.9937 152.481 79.0571 152.481 78.1612C152.481 77.2653 152.169 76.8174 151.544 76.8174Z"
						fill="#040303" />
				</g>
			</g>
		</g>
	</g>
	<defs>
		<filter id="filter0_d" x="50.0542" y="40.4711" width="98.9541" height="123.83" filterUnits="userSpaceOnUse"
			color-interpolation-filters="sRGB">
			<feFlood flood-opacity="0" result="BackgroundImageFix" />
			<feColorMatrix in="SourceAlpha" type="matrix" values="0 0 0 0 0 0 0 0 0 0 0 0 0 0 0 0 0 0 127 0" />
			<feOffset dy="2" />
			<feGaussianBlur stdDeviation="2" />
			<feColorMatrix type="matrix" values="0 0 0 0 0.913725 0 0 0 0 0.294118 0 0 0 0 0.235294 0 0 0 0.5 0" />
			<feBlend mode="normal" in2="BackgroundImageFix" result="effect1_dropShadow" />
			<feBlend mode="normal" in="SourceGraphic" in2="effect1_dropShadow" result="shape" />
		</filter>
		<filter id="filter1_d" x="38.4712" y="65.9537" width="122.557" height="72.1683" filterUnits="userSpaceOnUse"
			color-interpolation-filters="sRGB">
			<feFlood flood-opacity="0" result="BackgroundImageFix" />
			<feColorMatrix in="SourceAlpha" type="matrix" values="0 0 0 0 0 0 0 0 0 0 0 0 0 0 0 0 0 0 127 0" />
			<feOffset dy="2" />
			<feGaussianBlur stdDeviation="2" />
			<feColorMatrix type="matrix" values="0 0 0 0 0.0156863 0 0 0 0 0.0117647 0 0 0 0 0.0117647 0 0 0 0.25 0" />
			<feBlend mode="normal" in2="BackgroundImageFix" result="effect1_dropShadow" />
			<feBlend mode="normal" in="SourceGraphic" in2="effect1_dropShadow" result="shape" />
		</filter>
	</defs>
</svg>