<svg width="157" height="158" viewBox="0 0 157 158" fill="none" xmlns="http://www.w3.org/2000/svg">
	<g id="ItsTime2CodeLight" class="ItsTime2CodeLight">
		<g id="numberLight" class="numberLight" filter="url(#filter0_d)">
			<path
				d="M29.5839 152.832C28.1745 152.237 26.1611 150.847 23.5437 148.662C20.9262 146.478 19.2148 144.492 18.4094 142.705C18.2081 142.506 18.1074 141.91 18.1074 140.917C18.1074 139.527 18.4094 137.939 19.0135 136.151C19.6175 134.364 20.2215 133.47 20.8255 133.47C21.4296 134.066 23.0403 132.577 25.6578 129.002C28.4766 125.229 29.9866 122.846 30.188 121.853C30.3893 121.059 30.9933 120.364 32 119.768C33.2081 118.974 34.0135 118.477 34.4161 118.279C35.4229 116.69 36.8323 115.002 38.6443 113.215C40.6578 111.229 41.9665 109.839 42.5705 109.044C43.3759 108.052 44.8859 106.463 47.1007 104.278C49.3155 101.895 51.3289 99.8102 53.141 98.023C57.9732 93.6541 61.4967 90.2781 63.7114 87.8951C74.1812 76.7744 79.6175 70.3203 80.0202 68.5331C80.2215 68.3345 80.6242 67.9373 81.2282 67.3416C81.8323 66.7458 82.6376 66.1501 83.6443 65.5543C86.6645 63.5685 89.4833 61.2847 92.1007 58.7031C92.3021 57.313 93.4094 55.1286 95.4229 52.1498C97.4363 49.171 99.4497 46.6887 101.463 44.7029C103.074 42.5184 104.483 40.1354 105.691 37.5538C107.101 34.7736 108.107 32.3906 108.711 30.4047L109.315 27.7238C109.315 26.9295 108.812 26.3337 107.805 25.9366C106.799 25.3408 105.591 24.8444 104.181 24.4472C102.973 24.05 101.966 23.7521 101.161 23.5536C96.5302 22.1635 92.5034 21.4684 89.0806 21.4684C81.6309 21.4684 73.9799 24.1493 66.1276 29.5111C63.3088 30.1069 61.094 30.8019 59.4833 31.5963C55.8591 32.7878 53.5437 33.2842 52.537 33.0856C51.9329 32.8871 51.0269 31.9934 49.8188 30.4047C48.6108 28.8161 47.5034 27.5253 46.4967 26.5323L43.4766 20.2769L52.839 15.213C65.3222 7.071 76.1947 3 85.4564 3C88.6779 3 91.4967 3.39717 93.9128 4.19151C95.7249 4.19151 97.537 4.3901 99.349 4.78726C101.161 5.18444 102.268 5.48232 102.671 5.6809C105.087 5.48232 108.208 7.36887 112.034 11.3406C116.06 15.3123 119.081 19.3833 121.094 23.5536C123.51 27.1281 124.718 30.8019 124.718 34.575C124.718 40.5326 121.497 48.1781 115.054 57.5116C110.624 62.6748 103.879 70.1218 94.8188 79.8524C85.7584 89.5831 80.2215 95.2428 78.2081 96.8314C75.792 98.023 69.9531 103.782 60.6913 114.108C51.4296 124.435 47.2014 129.598 48.0068 129.598V130.194C48.0068 129.002 54.2484 127.513 66.7316 125.726C79.4161 123.74 89.1812 122.747 96.0269 122.747C98.2416 122.747 99.7517 122.945 100.557 123.343C100.96 124.137 101.262 124.534 101.463 124.534C101.866 124.335 102.067 124.137 102.067 123.938C102.268 123.144 103.678 122.747 106.295 122.747C110.926 122.747 116.362 123.64 122.604 125.428C123.208 125.626 124.215 125.924 125.624 126.321C127.235 126.719 128.342 127.116 128.946 127.513C129.55 127.91 129.852 128.307 129.852 128.704C130.054 128.903 130.356 129.499 130.758 130.492C131.362 131.286 132.168 132.279 133.175 133.47C134.987 134.86 135.893 136.052 135.893 137.045C135.893 138.435 134.181 139.13 130.758 139.13C128.342 139.13 124.315 138.634 118.678 137.641C113.443 137.641 109.114 137.939 105.691 138.534C105.087 138.931 103.175 139.229 99.9531 139.428C96.9329 139.428 94.6175 139.428 93.0067 139.428C92 139.229 90.5906 139.13 88.7786 139.13C84.1477 139.13 77.6041 140.52 69.1477 143.3C64.7182 145.088 57.4698 147.272 47.4027 149.854C37.3356 152.435 31.396 153.428 29.5839 152.832Z"
				fill="#E94B3C" />
		</g>
		<g id="textLight" class="textLight">
			<g id="CodeLight" class="CodeLight" filter="url(#filter1_d)">
				<path
					d="M7.80758 122.58C5.49899 122.58 4.34469 121.554 4.34469 119.503C4.34469 118.109 4.90719 115.97 6.03219 113.087L6.91109 110.802C7.53219 109.22 7.84274 107.943 7.84274 106.97C7.84274 105.306 7.30953 104.357 6.24313 104.122C6.09078 104.076 6.01461 103.935 6.01461 103.701C6.01461 103.466 6.04391 103.249 6.1025 103.05C6.16109 102.839 6.24313 102.64 6.34859 102.453C6.61813 102.019 6.94625 101.79 7.33297 101.767C9.40719 101.638 11.0478 99.8686 12.2548 96.4584C12.6064 95.4741 12.8935 94.5366 13.1162 93.6459C13.1162 93.6459 13.3154 92.8373 13.7138 91.2202C14.3466 88.642 15.1435 86.8315 16.1045 85.7885C16.9365 84.8745 17.9736 84.4174 19.2158 84.4174C20.9619 84.4174 21.958 84.558 22.2041 84.8393C22.2978 84.9448 22.3447 85.0678 22.3447 85.2084C22.3447 85.853 21.8173 86.1752 20.7627 86.1752C20.1767 86.1752 19.6728 86.4389 19.2509 86.9662C18.8291 87.4819 18.4541 88.1498 18.1259 88.9702C17.7978 89.7905 17.5048 90.7045 17.247 91.7123L16.5088 94.7006C15.0673 100.525 12.6474 103.496 9.24899 103.613C10.667 104.187 11.3759 105.441 11.3759 107.374C11.3759 108.687 11.0127 110.234 10.2861 112.015C8.86813 115.472 8.15914 117.915 8.15914 119.345C8.15914 120.353 8.50484 120.857 9.19625 120.857C10.0634 120.857 10.497 121.115 10.497 121.63C10.497 122.263 9.60055 122.58 7.80758 122.58ZM36.7264 109.08L36.744 108.57C36.8729 105.066 37.7577 101.755 39.3983 98.6381C40.91 95.7905 42.8143 93.4877 45.1112 91.7299C47.3846 89.9955 49.5995 89.1284 51.7557 89.1284C53.3963 89.1284 54.6912 89.6967 55.6405 90.8334C56.4491 91.8178 56.8534 93.0248 56.8534 94.4545C56.8534 96.1655 56.2264 97.853 54.9725 99.517C54.2459 100.478 53.4725 101.169 52.6522 101.591C52.2655 101.802 51.9022 101.908 51.5623 101.908C51.2342 101.908 50.9295 101.837 50.6483 101.697C50.367 101.556 50.1209 101.38 49.91 101.169C49.4764 100.712 49.2596 100.302 49.2596 99.9389C49.2596 99.5756 49.3534 99.3237 49.5409 99.183C51.4627 97.8002 52.7694 96.3764 53.4608 94.9116C53.7303 94.3491 53.8651 93.7983 53.8651 93.2592C53.8651 92.1225 53.326 91.5541 52.2479 91.5541C50.5604 91.5541 48.8202 92.4741 47.0272 94.3139C45.3514 96.0131 43.9452 98.1459 42.8084 100.712C41.6248 103.349 40.9979 105.769 40.9276 107.972L40.91 108.64C40.91 111.277 41.4666 113.005 42.5799 113.826C42.9784 114.119 43.453 114.265 44.0037 114.265C44.5662 114.265 45.0936 114.195 45.5858 114.054C46.078 113.914 46.5702 113.72 47.0623 113.474C47.8592 113.064 48.8787 112.355 50.1209 111.347C50.4959 111.054 50.8065 111.095 51.0526 111.47C51.2635 111.775 51.369 112.126 51.369 112.525C51.369 113.193 51.2752 113.65 51.0877 113.896C50.912 114.13 50.6014 114.412 50.1561 114.74C49.7225 115.068 49.1893 115.372 48.5565 115.654C47.0799 116.31 45.6327 116.638 44.2147 116.638C42.7967 116.638 41.6541 116.468 40.787 116.128C39.9198 115.777 39.1873 115.279 38.5897 114.634C37.3475 113.275 36.7264 111.423 36.7264 109.08ZM60.1946 115.267C59.7024 114.798 59.3157 114.206 59.0345 113.492C58.7532 112.765 58.6067 111.91 58.595 110.925C58.5833 109.941 58.7005 108.945 58.9466 107.937C59.2044 106.929 59.5618 105.956 60.0188 105.019C60.4876 104.081 61.0442 103.203 61.6888 102.382C62.345 101.562 63.0657 100.847 63.8509 100.238C65.5618 98.9252 67.3372 98.269 69.177 98.269C71.5911 98.269 73.2259 99.3295 74.0813 101.451C74.6907 102.986 74.7259 104.843 74.1868 107.023C73.6946 109.027 72.7923 110.867 71.4798 112.542C70.179 114.218 68.6438 115.408 66.8743 116.111C65.9837 116.462 65.1048 116.638 64.2376 116.638C63.3821 116.638 62.6145 116.527 61.9348 116.304C61.2669 116.081 60.6868 115.736 60.1946 115.267ZM63.552 106.742C63.2005 107.609 62.9192 108.499 62.7083 109.414C62.5091 110.328 62.4153 111.195 62.427 112.015C62.4388 112.824 62.5618 113.462 62.7962 113.931C63.0423 114.388 63.4348 114.617 63.9739 114.617C64.513 114.617 65.0403 114.435 65.5559 114.072C66.0833 113.697 66.593 113.205 67.0852 112.595C67.5774 111.986 68.0403 111.283 68.4739 110.486C68.9075 109.689 69.2884 108.857 69.6165 107.99C70.3313 106.103 70.677 104.427 70.6536 102.962C70.6536 101.673 70.3899 100.853 69.8626 100.501C69.6516 100.361 69.3528 100.29 68.9661 100.29C68.5911 100.29 68.1575 100.466 67.6653 100.818C67.1731 101.158 66.6809 101.621 66.1888 102.206C65.6966 102.792 65.222 103.478 64.7649 104.263C64.3079 105.048 63.9036 105.874 63.552 106.742ZM97.7077 112.912C97.9538 112.912 98.0769 113.04 98.0769 113.298C98.0769 114.306 97.5554 115.173 96.5124 115.9C95.821 116.392 95.1648 116.638 94.5437 116.638C93.9343 116.638 93.448 116.568 93.0847 116.427C92.7214 116.287 92.3933 116.064 92.1003 115.759C91.4441 115.056 91.1159 114.089 91.1159 112.859C91.1159 112.613 91.1628 112.22 91.2566 111.681C90.3073 113.146 89.4929 114.177 88.8132 114.775C87.4421 116.017 86.1003 116.638 84.7878 116.638C82.7136 116.638 81.3542 115.701 80.7097 113.826C80.4753 113.134 80.3581 112.267 80.3581 111.224C80.3581 110.181 80.5163 109.126 80.8327 108.06C81.1491 106.994 81.5769 105.98 82.1159 105.019C82.6667 104.058 83.2995 103.167 84.0144 102.347C84.7409 101.515 85.5027 100.794 86.2995 100.185C88.0105 98.9077 89.5573 98.269 90.9402 98.269C92.323 98.269 93.4304 98.8315 94.2624 99.9565C96.3015 92.9721 97.8366 88.853 98.8679 87.5991C99.3015 87.0834 99.7585 86.8256 100.239 86.8256C101.036 86.8256 101.639 87.0541 102.05 87.5112C102.178 87.6635 102.243 87.8159 102.243 87.9682C102.243 88.1205 102.149 88.4018 101.962 88.812C101.774 89.2221 101.499 89.8842 101.135 90.7983C100.092 93.5522 99.3601 95.5678 98.9382 96.8452C97.8601 100.115 97.1335 102.365 96.7585 103.595L95.7917 106.847C94.9597 109.742 94.5437 111.581 94.5437 112.367C94.5437 113.152 94.8308 113.544 95.405 113.544C95.9323 113.544 96.3542 113.474 96.6706 113.333L97.3386 113.017C97.4675 112.947 97.5905 112.912 97.7077 112.912ZM85.6316 114.001C86.8386 114.001 88.2214 112.824 89.78 110.468C91.4089 108.031 92.5456 105.376 93.1902 102.505C93.1433 101.708 92.8093 101.122 92.1882 100.747C91.9773 100.619 91.655 100.554 91.2214 100.554C90.7995 100.554 90.3015 100.712 89.7273 101.029C89.1648 101.333 88.614 101.749 88.0749 102.277C87.5476 102.804 87.0495 103.425 86.5808 104.14C86.1237 104.843 85.7253 105.593 85.3855 106.39C84.6472 108.124 84.278 109.83 84.278 111.505C84.278 113.169 84.7292 114.001 85.6316 114.001ZM103.457 110.31C103.504 109.29 103.674 108.318 103.967 107.392C104.26 106.455 104.653 105.552 105.145 104.685C105.637 103.806 106.211 102.98 106.867 102.206C107.535 101.421 108.256 100.736 109.029 100.15C110.705 98.8959 112.399 98.269 114.11 98.269C116.113 98.269 117.449 99.0952 118.117 100.747C118.352 101.31 118.463 101.978 118.451 102.751C118.44 103.513 118.293 104.222 118.012 104.878C117.731 105.523 117.338 106.115 116.834 106.654C116.342 107.181 115.75 107.656 115.059 108.078C114.379 108.499 113.635 108.857 112.826 109.15C111.162 109.736 109.381 110.04 107.483 110.064C107.436 110.228 107.406 110.474 107.395 110.802C107.383 111.13 107.418 111.499 107.5 111.91C107.582 112.308 107.723 112.665 107.922 112.982C108.344 113.685 108.953 114.037 109.75 114.037C111.11 114.037 112.434 113.638 113.723 112.841C114.18 112.572 114.549 112.296 114.83 112.015C115.123 111.722 115.375 111.576 115.586 111.576C115.797 111.576 115.979 111.705 116.131 111.962C116.295 112.208 116.377 112.49 116.377 112.806C116.377 113.427 116.201 113.966 115.85 114.423C114.373 115.9 112.176 116.638 109.258 116.638C107.535 116.638 106.153 116.122 105.11 115.091C103.938 113.919 103.387 112.326 103.457 110.31ZM113.723 100.607C112.492 100.607 111.309 101.451 110.172 103.138C109.211 104.591 108.438 106.314 107.852 108.306C109.809 108.107 111.508 107.333 112.949 105.986C114.274 104.72 114.936 103.507 114.936 102.347C114.936 101.187 114.531 100.607 113.723 100.607ZM133.888 121.789C133.888 121.144 134.415 120.822 135.47 120.822C136.888 120.822 138.054 118.976 138.968 115.285L139.724 112.296C141.165 106.472 143.585 103.501 146.983 103.384C145.565 102.81 144.856 101.556 144.856 99.6225C144.856 98.31 145.226 96.7631 145.964 94.9819C147.37 91.5248 148.073 89.0815 148.073 87.6518C148.073 86.644 147.728 86.1401 147.036 86.1401C146.169 86.1401 145.735 85.8823 145.735 85.3666C145.735 84.7338 146.632 84.4174 148.425 84.4174C150.733 84.4174 151.888 85.4428 151.888 87.4936C151.888 88.8881 151.325 91.0209 150.2 93.892L149.321 96.1948C148.7 97.7768 148.39 99.0541 148.39 100.027C148.39 101.691 148.923 102.64 149.989 102.874C150.142 102.921 150.218 103.062 150.218 103.296C150.218 103.531 150.189 103.753 150.13 103.964C150.071 104.164 149.983 104.357 149.866 104.544C149.608 104.978 149.286 105.206 148.899 105.23C146.31 105.382 144.358 108.183 143.046 113.632C142.87 114.347 142.694 115.062 142.519 115.777C142.343 116.492 142.138 117.183 141.903 117.851C141.681 118.519 141.423 119.14 141.13 119.714C140.849 120.289 140.515 120.787 140.128 121.208C139.284 122.122 138.247 122.58 137.017 122.58C135.271 122.58 134.274 122.439 134.028 122.158C133.935 122.052 133.888 121.929 133.888 121.789Z"
					fill="#2D2926" />
			</g>
			<g id="ItsTimeLight" class="ItsTimeLight" filter="url(#filter2_d)">
				<path
					d="M3.79977 65.1989C5.82711 63.7106 7.87203 59.8786 9.93453 53.7028C11.1298 50.1051 11.9619 46.859 12.4306 43.9645C12.5595 43.1559 12.624 42.5348 12.624 42.1012C12.1435 42.1247 11.6982 42.2536 11.288 42.4879L9.96969 43.2438C9.60641 43.443 9.12008 43.2848 8.5107 42.7692C7.91305 42.2536 7.63766 41.82 7.68453 41.4684C7.74313 41.1051 7.94234 40.8122 8.28219 40.5895C8.63375 40.3551 9.03805 40.1559 9.49508 39.9919C10.456 39.652 11.2588 39.4821 11.9033 39.4821C12.5595 39.4821 13.1338 39.5348 13.6259 39.6403C14.1298 39.734 14.5869 39.8981 14.997 40.1325C15.9345 40.6715 16.415 41.445 16.4384 42.4528C16.4853 44.1989 15.8935 47.1637 14.663 51.3473C12.7177 57.9684 10.4326 62.6208 7.80758 65.3044C7.09274 66.0426 6.34859 66.5465 5.57516 66.8161C5.36422 66.8981 5.14742 66.9391 4.92477 66.9391C4.71383 66.9391 4.52047 66.8981 4.34469 66.8161C4.16891 66.7458 4.02242 66.652 3.90524 66.5348C3.65914 66.3122 3.53609 66.0661 3.53609 65.7965C3.53609 65.527 3.62399 65.3278 3.79977 65.1989ZM30.309 62.2106C30.6488 62.2106 30.8188 62.4391 30.8188 62.8961C30.8188 63.2829 30.7016 63.6579 30.4672 64.0211C30.1508 64.7008 29.518 65.3454 28.5688 65.9547C27.4906 66.6461 26.4066 66.9919 25.3168 66.9919C23.4301 66.9919 22.2348 66.1481 21.7309 64.4606C21.1332 62.4567 22.0297 58.2086 24.4203 51.7165C23.0727 51.5993 22.3402 51.3649 22.223 51.0133C22.1879 50.9079 22.1703 50.7965 22.1703 50.6794C22.1703 50.5504 22.223 50.404 22.3285 50.2399C22.4457 50.0758 22.5922 49.9176 22.768 49.7653C23.1781 49.4254 23.5941 49.2555 24.016 49.2555H25.4047C26.6703 46.2907 27.5727 44.6032 28.1117 44.193C28.3695 44.0055 28.6566 43.9118 28.973 43.9118C29.2895 43.9118 29.5531 43.9528 29.7641 44.0348C29.975 44.1169 30.1625 44.234 30.3266 44.3864C30.7016 44.7379 30.8891 45.1305 30.8891 45.5641C30.8891 45.7985 30.8188 46.068 30.6781 46.3727L29.3773 49.2028H29.7992C30.5258 49.2028 31.1117 49.1969 31.557 49.1852C31.557 49.1852 31.891 49.1794 32.559 49.1676C32.7816 49.1559 33.057 49.1501 33.3852 49.1501C33.725 49.1501 33.8949 49.2731 33.8949 49.5192C33.8949 51.0661 32.0668 51.8395 28.4105 51.8395H28.2699L27.0746 54.9333C25.727 58.5895 25.0531 61.1501 25.0531 62.6149C25.0531 63.0251 25.1469 63.3473 25.3344 63.5817C25.5219 63.8044 25.8734 63.9157 26.3891 63.9157C26.9047 63.9157 27.3734 63.8278 27.7953 63.652C28.2172 63.4762 28.5863 63.2829 28.9027 63.0719C29.2191 62.8493 29.4887 62.6501 29.7113 62.4743C29.9457 62.2985 30.1449 62.2106 30.309 62.2106ZM35.2323 63.7223C35.2323 63.359 35.3084 63.0251 35.4608 62.7204C35.6248 62.404 35.8241 62.1403 36.0584 61.9294C36.5506 61.4723 37.0662 61.2438 37.6053 61.2438C38.0741 61.2438 38.3084 61.484 38.3084 61.9645C38.3084 63.1833 38.7127 64.0329 39.5213 64.5133C39.8143 64.6891 40.119 64.777 40.4354 64.777C40.7518 64.777 41.0213 64.7419 41.244 64.6715C41.4666 64.6012 41.6717 64.4899 41.8592 64.3376C42.2811 63.9977 42.492 63.5934 42.492 63.1247C42.492 62.6559 42.3866 62.2282 42.1756 61.8415C41.9647 61.443 41.701 61.027 41.3846 60.5934L40.3827 59.1872C38.9764 57.3122 38.2733 55.5836 38.2733 54.0016C38.2733 52.6891 38.8299 51.4997 39.9432 50.4333C41.2088 49.2262 42.8319 48.6227 44.8123 48.6227C46.5467 48.6227 47.9002 49.0504 48.8729 49.9059C49.6698 50.5973 50.0682 51.3883 50.0682 52.279C50.0682 53.2047 49.7166 53.943 49.0135 54.4938C48.3807 54.986 47.7479 55.1676 47.1151 55.0387C46.8338 54.9801 46.617 54.8395 46.4647 54.6169C46.3123 54.3825 46.283 54.1188 46.3768 53.8258C46.4705 53.5329 46.5174 53.2282 46.5174 52.9118C46.5174 52.5954 46.4588 52.3024 46.3416 52.0329C46.2245 51.7633 46.0662 51.5348 45.867 51.3473C45.4569 50.9606 45.0233 50.7672 44.5662 50.7672C44.1209 50.7672 43.7518 50.82 43.4588 50.9254C43.1659 51.0192 42.908 51.1598 42.6854 51.3473C42.2284 51.7692 41.9998 52.2907 41.9998 52.9118C41.9998 53.5211 42.1053 54.0485 42.3162 54.4938C42.5272 54.9391 42.785 55.3844 43.0897 55.8297C43.4061 56.2751 43.7459 56.7262 44.1092 57.1833C44.4725 57.6403 44.8065 58.1208 45.1112 58.6247C45.8495 59.8083 46.2186 60.8512 46.2186 61.7536C46.2186 62.6442 46.0311 63.3942 45.6561 64.0036C45.2811 64.6012 44.7948 65.1169 44.1971 65.5504C42.9198 66.4997 41.4901 66.9743 39.908 66.9743C38.3963 66.9743 37.201 66.611 36.3221 65.8844C35.5955 65.2751 35.2323 64.5544 35.2323 63.7223ZM88.6902 42.7868C88.3503 43.0329 87.9519 43.2204 87.4948 43.3493C87.0495 43.4665 86.446 43.5251 85.6843 43.5251C84.9343 43.5251 83.9558 43.4723 82.7487 43.3669C82.4675 44.1286 82.1804 45.0192 81.8874 46.0387L79.8659 52.9294C77.3698 61.1794 74.7097 65.8083 71.8855 66.8161C71.6862 66.8981 71.4284 66.9391 71.112 66.9391C70.8073 66.9391 70.5554 66.8981 70.3562 66.8161C70.1687 66.7458 70.0105 66.652 69.8816 66.5348C69.6237 66.3239 69.4948 66.1129 69.4948 65.902C69.4948 65.6911 69.5476 65.5504 69.653 65.4801L70.1101 65.1989C71.7976 64.0973 73.3445 61.1676 74.7507 56.4098L76.0163 52.1208C77.153 48.2653 78.2136 45.236 79.198 43.0329C78.2722 42.9508 77.5691 42.9098 77.0886 42.9098C75.7058 42.9098 74.7097 43.1032 74.1003 43.4899C73.5027 43.8766 73.0808 44.2985 72.8347 44.7555C72.6003 45.2008 72.4773 45.5114 72.4655 45.6872C72.4304 46.0153 72.3249 46.2262 72.1491 46.32C71.9734 46.402 71.7566 46.443 71.4987 46.443C71.2527 46.443 70.9948 46.3551 70.7253 46.1794C70.4558 45.9919 70.2331 45.7575 70.0573 45.4762C69.6823 44.902 69.5359 44.2575 69.6179 43.5426C69.6999 42.8161 69.9343 42.195 70.321 41.6794C70.7195 41.152 71.1882 40.7243 71.7273 40.3961C72.7234 39.7868 73.7722 39.4821 74.8737 39.4821C75.987 39.4821 77.0359 39.5407 78.0202 39.6579C79.0163 39.7633 80.0066 39.8864 80.9909 40.027C83.6042 40.3786 85.2683 40.5544 85.9831 40.5544C86.698 40.5544 87.2253 40.5133 87.5652 40.4313C87.9167 40.3493 88.2155 40.2262 88.4616 40.0622C88.7077 39.8981 88.8777 39.7926 88.9714 39.7458C89.0769 39.6872 89.2409 39.6579 89.4636 39.6579C89.8152 39.6579 89.9675 39.9274 89.9206 40.4665C89.8737 40.9938 89.7448 41.4508 89.5339 41.8376C89.323 42.2126 89.0417 42.529 88.6902 42.7868ZM98.0607 44.5094C97.8029 44.779 97.5099 45.0016 97.1818 45.1774C96.8537 45.3415 96.508 45.4469 96.1447 45.4938C95.7814 45.529 95.4357 45.4704 95.1076 45.318C94.7912 45.1657 94.5158 44.9489 94.2814 44.6676C93.7775 44.0817 93.5256 43.4899 93.5256 42.8922C93.5256 42.2946 93.6193 41.8493 93.8068 41.5563C94.006 41.2516 94.2521 41.0055 94.5451 40.818C95.1076 40.4547 95.6349 40.2731 96.1271 40.2731C96.631 40.2731 97.0177 40.3083 97.2873 40.3786C97.5685 40.4489 97.8263 40.5661 98.0607 40.7301C98.6349 41.1169 98.922 41.5915 98.922 42.154C98.922 42.7047 98.84 43.1676 98.6759 43.5426C98.5236 43.9059 98.3185 44.2282 98.0607 44.5094ZM94.4572 63.529C94.7619 63.529 94.9142 63.7282 94.9142 64.1266C94.9142 64.654 94.674 65.1989 94.1935 65.7614C93.4904 66.5817 92.547 66.9919 91.3634 66.9919C90.0041 66.9919 89.0724 66.4411 88.5685 65.3395C88.381 64.9528 88.2873 64.484 88.2873 63.9333C88.2873 63.3825 88.381 62.7731 88.5685 62.1051C88.7677 61.4254 89.008 60.7165 89.2892 59.9782C89.5822 59.2282 89.8986 58.4723 90.2384 57.7106L91.1701 55.4958C91.8498 53.8434 92.1896 52.7536 92.1896 52.2262C92.1896 51.6989 92.131 51.3532 92.0138 51.1891C91.9084 51.0133 91.7912 50.8786 91.6623 50.7848L91.3107 50.5387C91.1935 50.4567 91.1349 50.3161 91.1349 50.1169C91.1349 49.9059 91.2111 49.7067 91.3634 49.5192C91.5275 49.3317 91.7384 49.1676 91.9963 49.027C92.5236 48.7575 93.1388 48.6227 93.842 48.6227C95.5646 48.6227 96.4259 49.0739 96.4259 49.9762C96.4259 51.0309 96.1506 52.2379 95.5998 53.5973C95.049 54.945 94.5802 56.0348 94.1935 56.8669L93.1388 59.2926C92.3654 61.0739 91.9787 62.3571 91.9787 63.1422C91.9787 63.6579 92.2365 63.9157 92.7521 63.9157C93.256 63.9157 93.6369 63.8512 93.8947 63.7223C94.1525 63.5934 94.34 63.529 94.4572 63.529ZM115.183 51.945C114.504 51.945 113.261 52.9294 111.457 54.8981C110.109 56.4333 109.13 57.5876 108.521 58.361L106.939 60.3649C106.259 61.654 105.726 62.7262 105.339 63.5817L104.39 65.6208C104.144 66.1247 103.927 66.4821 103.74 66.693C103.564 66.8922 103.318 66.9919 103.002 66.9919C102.697 66.9919 102.398 66.9333 102.105 66.8161C101.824 66.7106 101.578 66.57 101.367 66.3942C100.921 66.0192 100.699 65.609 100.699 65.1637C100.699 64.9879 100.828 64.6422 101.086 64.1266L101.754 62.7028C101.964 62.2809 102.211 61.7419 102.492 61.0856L103.476 58.6774C104.859 55.2204 105.55 52.9879 105.55 51.9801C105.55 51.4411 105.375 51.0426 105.023 50.7848L104.671 50.5387C104.554 50.4567 104.496 50.3161 104.496 50.1169C104.496 49.9059 104.572 49.7067 104.724 49.5192C104.888 49.3317 105.099 49.1676 105.357 49.027C105.884 48.7575 106.412 48.6227 106.939 48.6227C107.478 48.6227 107.9 48.6813 108.205 48.7985C108.509 48.9157 108.773 49.0739 108.996 49.2731C109.441 49.6833 109.664 50.111 109.664 50.5563C109.664 51.0016 109.605 51.4528 109.488 51.9098C109.371 52.3551 109.224 52.8122 109.048 53.2809C108.873 53.7379 108.685 54.1833 108.486 54.6169C108.017 55.6247 107.724 56.2458 107.607 56.4801C107.502 56.7028 107.472 56.7848 107.519 56.7262C109.664 53.9489 110.953 52.3083 111.386 51.8044C112.289 50.7614 112.992 50.0465 113.496 49.6598C114.421 48.9684 115.295 48.6227 116.115 48.6227C116.947 48.6227 117.609 48.8805 118.101 49.3961C118.593 49.9118 118.839 50.5915 118.839 51.4352C118.839 52.1735 118.652 53.0407 118.277 54.0368C117.902 55.0329 117.65 55.7301 117.521 56.1286L120.105 52.7184L121.546 50.9958C122.414 50.0231 123.175 49.3844 123.832 49.0797C124.488 48.7751 125.021 48.6227 125.431 48.6227C125.853 48.6227 126.263 48.6989 126.662 48.8512C127.072 49.0036 127.418 49.2204 127.699 49.5016C128.296 50.0758 128.595 50.8376 128.595 51.7868C128.595 52.7008 128.384 53.6383 127.963 54.5993C127.541 55.5602 127.171 56.3512 126.855 56.9723C126.539 57.5817 126.234 58.1969 125.941 58.818C125.086 60.6813 124.658 62.0641 124.658 62.9665C124.658 63.5993 124.916 63.9157 125.431 63.9157C125.923 63.9157 126.369 63.8102 126.767 63.5993C127.177 63.3883 127.441 63.2829 127.558 63.2829C127.804 63.2829 127.927 63.4059 127.927 63.652C127.927 64.695 127.394 65.568 126.328 66.2711C125.613 66.7516 124.957 66.9919 124.359 66.9919C123.773 66.9919 123.298 66.9215 122.935 66.7809C122.572 66.6403 122.244 66.4176 121.951 66.1129C121.295 65.4333 120.966 64.5836 120.966 63.5641C120.966 62.5446 121.095 61.6071 121.353 60.7516C121.611 59.8961 121.916 59.07 122.267 58.2731C122.619 57.4645 122.97 56.7262 123.322 56.0583C123.685 55.3786 123.961 54.8395 124.148 54.4411C124.523 53.6208 124.711 53.0172 124.711 52.6305C124.711 52.1735 124.47 51.945 123.99 51.945C123.357 51.945 122.22 52.9938 120.58 55.0915C119.338 56.7204 118.476 57.8922 117.996 58.6071L116.783 60.3649C116.103 61.654 115.582 62.7262 115.218 63.5817L114.322 65.6208C114.099 66.1247 113.906 66.4821 113.742 66.693C113.578 66.8922 113.349 66.9919 113.056 66.9919C112.763 66.9919 112.476 66.945 112.195 66.8512C111.925 66.7575 111.691 66.6344 111.492 66.4821C111.035 66.1422 110.806 65.7848 110.806 65.4098C110.806 65.0231 110.929 64.5016 111.175 63.8454C111.433 63.1774 111.75 62.4333 112.125 61.6129L114.586 56.4098C115.464 54.4762 115.904 53.2516 115.904 52.736C115.904 52.2086 115.664 51.945 115.183 51.945ZM116.923 56.902C116.935 56.902 116.941 56.8961 116.941 56.8844L116.959 56.8493C116.935 56.8727 116.923 56.8903 116.923 56.902ZM134.521 60.6637C134.567 59.6442 134.737 58.6715 135.03 57.7458C135.323 56.8083 135.716 55.9059 136.208 55.0387C136.7 54.1598 137.274 53.3336 137.931 52.5602C138.599 51.7751 139.319 51.0895 140.093 50.5036C141.769 49.2497 143.462 48.6227 145.173 48.6227C147.177 48.6227 148.513 49.4489 149.181 51.1012C149.415 51.6637 149.526 52.3317 149.515 53.1051C149.503 53.8669 149.356 54.5758 149.075 55.2321C148.794 55.8766 148.401 56.4684 147.897 57.0075C147.405 57.5348 146.814 58.0094 146.122 58.4313C145.442 58.8532 144.698 59.2106 143.89 59.5036C142.226 60.0895 140.444 60.3942 138.546 60.4176C138.499 60.5817 138.47 60.8278 138.458 61.1559C138.446 61.484 138.481 61.8532 138.564 62.2633C138.646 62.6618 138.786 63.0192 138.985 63.3356C139.407 64.0387 140.017 64.3903 140.814 64.3903C142.173 64.3903 143.497 63.9919 144.786 63.195C145.243 62.9254 145.612 62.6501 145.894 62.3688C146.187 62.0758 146.439 61.9294 146.649 61.9294C146.86 61.9294 147.042 62.0583 147.194 62.3161C147.358 62.5622 147.44 62.8434 147.44 63.1598C147.44 63.7809 147.265 64.32 146.913 64.777C145.437 66.2536 143.239 66.9919 140.321 66.9919C138.599 66.9919 137.216 66.4762 136.173 65.445C135.001 64.2731 134.45 62.6794 134.521 60.6637ZM144.786 50.9606C143.556 50.9606 142.372 51.8044 141.235 53.4919C140.274 54.945 139.501 56.6676 138.915 58.6598C140.872 58.4606 142.571 57.6872 144.013 56.3395C145.337 55.0739 145.999 53.861 145.999 52.7008C145.999 51.5407 145.595 50.9606 144.786 50.9606Z"
					fill="#2D2926" />
			</g>
		</g>
	</g>
	<defs>
		<filter id="filter0_d" x="15.1074" y="0" width="125.785" height="158" filterUnits="userSpaceOnUse"
			color-interpolation-filters="sRGB">
			<feFlood flood-opacity="0" result="BackgroundImageFix" />
			<feColorMatrix in="SourceAlpha" type="matrix" values="0 0 0 0 0 0 0 0 0 0 0 0 0 0 0 0 0 0 127 0" />
			<feOffset dx="1" dy="1" />
			<feGaussianBlur stdDeviation="2" />
			<feColorMatrix type="matrix" values="0 0 0 0 0.913725 0 0 0 0 0.294118 0 0 0 0 0.235294 0 0 0 0.5 0" />
			<feBlend mode="normal" in2="BackgroundImageFix" result="effect1_dropShadow" />
			<feBlend mode="normal" in="SourceGraphic" in2="effect1_dropShadow" result="shape" />
		</filter>
		<filter id="filter1_d" x="1.34473" y="81.4174" width="155.543" height="46.1621" filterUnits="userSpaceOnUse"
			color-interpolation-filters="sRGB">
			<feFlood flood-opacity="0" result="BackgroundImageFix" />
			<feColorMatrix in="SourceAlpha" type="matrix" values="0 0 0 0 0 0 0 0 0 0 0 0 0 0 0 0 0 0 127 0" />
			<feOffset dx="1" dy="1" />
			<feGaussianBlur stdDeviation="2" />
			<feColorMatrix type="matrix" values="0 0 0 0 0.176471 0 0 0 0 0.160784 0 0 0 0 0.14902 0 0 0 0.5 0" />
			<feBlend mode="normal" in2="BackgroundImageFix" result="effect1_dropShadow" />
			<feBlend mode="normal" in="SourceGraphic" in2="effect1_dropShadow" result="shape" />
		</filter>
		<filter id="filter2_d" x="0.536133" y="36.4821" width="153.979" height="35.5098" filterUnits="userSpaceOnUse"
			color-interpolation-filters="sRGB">
			<feFlood flood-opacity="0" result="BackgroundImageFix" />
			<feColorMatrix in="SourceAlpha" type="matrix" values="0 0 0 0 0 0 0 0 0 0 0 0 0 0 0 0 0 0 127 0" />
			<feOffset dx="1" dy="1" />
			<feGaussianBlur stdDeviation="2" />
			<feColorMatrix type="matrix" values="0 0 0 0 0.176471 0 0 0 0 0.160784 0 0 0 0 0.14902 0 0 0 0.5 0" />
			<feBlend mode="normal" in2="BackgroundImageFix" result="effect1_dropShadow" />
			<feBlend mode="normal" in="SourceGraphic" in2="effect1_dropShadow" result="shape" />
		</filter>
	</defs>
</svg>