<svg width="200" height="200" viewBox="0 0 200 200" fill="none" xmlns="http://www.w3.org/2000/svg">
<g id="ItsTime2CodeDark">
<g id="ItsTime2CodeDark_2">
<g id="numberDark" filter="url(#filter0_d)">
<path id="Vector" d="M62.9158 158.171C61.8274 157.712 60.2727 156.639 58.2515 154.951C56.2303 153.265 54.9087 151.731 54.2868 150.351C54.1313 150.198 54.0536 149.737 54.0536 148.971C54.0536 147.897 54.2868 146.671 54.7533 145.29C55.2197 143.91 55.6861 143.22 56.1525 143.22C56.619 143.68 57.8628 142.53 59.884 139.77C62.0607 136.856 63.2267 135.016 63.3822 134.249C63.5377 133.636 64.0041 133.1 64.7815 132.639C65.7144 132.026 66.3363 131.642 66.6472 131.49C67.4246 130.263 68.513 128.959 69.9122 127.579C71.467 126.046 72.4776 124.972 72.944 124.358C73.5659 123.592 74.732 122.365 76.4422 120.678C78.1525 118.838 79.7073 117.228 81.1066 115.848C84.838 112.474 87.5588 109.867 89.269 108.027C97.3538 99.4397 101.552 94.4558 101.863 93.0757C102.018 92.9224 102.329 92.6157 102.796 92.1557C103.262 91.6956 103.884 91.2356 104.661 90.7755C106.993 89.2421 109.17 87.4785 111.191 85.485C111.347 84.4116 112.202 82.7248 113.757 80.4246C115.311 78.1243 116.866 76.2075 118.421 74.674C119.665 72.9872 120.753 71.147 121.686 69.1535C122.775 67.0066 123.551 65.1665 124.018 63.633L124.484 61.5628C124.484 60.9494 124.096 60.4893 123.318 60.1827C122.541 59.7226 121.608 59.3393 120.52 59.0326C119.587 58.7259 118.809 58.4958 118.188 58.3425C114.612 57.2691 111.502 56.7324 108.859 56.7324C103.106 56.7324 97.1984 58.8025 91.1348 62.9429C88.9581 63.403 87.2479 63.9397 86.0041 64.5531C83.2055 65.4732 81.4175 65.8565 80.6402 65.7032C80.1737 65.5499 79.4741 64.8598 78.5412 63.633C77.6083 62.4063 76.7532 61.4095 75.9758 60.6427L73.6437 55.8123L80.8734 51.9019C90.5129 45.6147 98.9086 42.471 106.061 42.471C108.548 42.471 110.725 42.7777 112.591 43.3911C113.99 43.3911 115.389 43.5445 116.788 43.8512C118.188 44.1579 119.042 44.3879 119.354 44.5412C121.219 44.3879 123.629 45.8447 126.584 48.9117C129.693 51.9786 132.025 55.1222 133.58 58.3425C135.446 61.1028 136.378 63.9397 136.378 66.8533C136.378 71.4537 133.891 77.3576 128.916 84.5649C125.495 88.552 120.286 94.3025 113.29 101.817C106.294 109.331 102.018 113.701 100.463 114.928C98.5977 115.848 94.0889 120.295 86.9369 128.269C79.785 136.243 76.52 140.23 77.1419 140.23V140.69C77.1419 139.77 81.9617 138.62 91.6012 137.24C101.396 135.707 108.937 134.94 114.223 134.94C115.933 134.94 117.099 135.093 117.721 135.4C118.032 136.013 118.266 136.32 118.421 136.32C118.732 136.166 118.887 136.013 118.887 135.859C119.042 135.246 120.131 134.94 122.152 134.94C125.728 134.94 129.926 135.629 134.746 137.01C135.212 137.163 135.99 137.393 137.078 137.7C138.322 138.007 139.177 138.314 139.643 138.62C140.11 138.927 140.343 139.233 140.343 139.54C140.499 139.693 140.732 140.154 141.042 140.92C141.509 141.534 142.131 142.3 142.909 143.22C144.308 144.293 145.008 145.214 145.008 145.981C145.008 147.054 143.686 147.591 141.042 147.591C139.177 147.591 136.067 147.208 131.714 146.441C127.672 146.441 124.329 146.671 121.686 147.13C121.219 147.437 119.743 147.667 117.255 147.821C114.923 147.821 113.135 147.821 111.891 147.821C111.114 147.667 110.025 147.591 108.626 147.591C105.05 147.591 99.997 148.664 93.4669 150.811C90.0465 152.192 84.4493 153.878 76.6754 155.872C68.9016 157.865 64.3151 158.632 62.9158 158.171Z" fill="#E94B3C"/>
</g>
<g id="textDark" filter="url(#filter1_d)">
<g id="CodeDark">
<path id="Vector_2" d="M45.769 132.122C43.9863 132.122 43.095 131.33 43.095 129.746C43.095 128.669 43.5293 127.018 44.3981 124.791L45.0767 123.027C45.5564 121.805 45.7962 120.819 45.7962 120.068C45.7962 118.783 45.3844 118.05 44.5609 117.869C44.4433 117.833 44.3845 117.724 44.3845 117.544C44.3845 117.362 44.4071 117.195 44.4524 117.041C44.4976 116.878 44.5609 116.724 44.6424 116.58C44.8505 116.245 45.1039 116.068 45.4025 116.05C47.0042 115.951 48.2711 114.584 49.2032 111.951C49.4747 111.191 49.6964 110.467 49.8683 109.779C49.8683 109.779 50.0222 109.155 50.3298 107.906C50.8185 105.915 51.4338 104.517 52.1759 103.712C52.8184 103.006 53.6192 102.653 54.5785 102.653C55.9268 102.653 56.696 102.761 56.886 102.979C56.9584 103.06 56.9946 103.155 56.9946 103.264C56.9946 103.761 56.5873 104.01 55.773 104.01C55.3205 104.01 54.9313 104.214 54.6056 104.621C54.2798 105.019 53.9903 105.535 53.7368 106.168C53.4835 106.802 53.2572 107.508 53.0581 108.286L52.4881 110.593C51.375 115.091 49.5063 117.385 46.8821 117.476C47.9771 117.919 48.5245 118.887 48.5245 120.38C48.5245 121.394 48.244 122.588 47.6829 123.964C46.588 126.633 46.0405 128.52 46.0405 129.624C46.0405 130.402 46.3074 130.791 46.8413 130.791C47.511 130.791 47.8458 130.991 47.8458 131.388C47.8458 131.877 47.1535 132.122 45.769 132.122ZM68.1002 121.697L68.1137 121.303C68.2133 118.598 68.8965 116.041 70.1634 113.634C71.3307 111.435 72.8012 109.657 74.5749 108.299C76.3304 106.96 78.0408 106.291 79.7058 106.291C80.9727 106.291 81.9726 106.729 82.7056 107.607C83.33 108.367 83.6422 109.299 83.6422 110.403C83.6422 111.725 83.1581 113.028 82.1898 114.313C81.6287 115.055 81.0315 115.588 80.3981 115.914C80.0995 116.077 79.8189 116.159 79.5564 116.159C79.3031 116.159 79.0678 116.104 78.8507 115.996C78.6334 115.887 78.4434 115.751 78.2805 115.588C77.9457 115.235 77.7783 114.919 77.7783 114.638C77.7783 114.358 77.8507 114.163 77.9955 114.055C79.4795 112.987 80.4886 111.887 81.0225 110.756C81.2306 110.322 81.3347 109.897 81.3347 109.48C81.3347 108.603 80.9184 108.164 80.0859 108.164C78.7828 108.164 77.439 108.874 76.0544 110.295C74.7604 111.607 73.6745 113.254 72.7967 115.235C71.8827 117.272 71.3986 119.14 71.3443 120.842L71.3307 121.357C71.3307 123.394 71.7605 124.728 72.6202 125.362C72.928 125.588 73.2944 125.701 73.7197 125.701C74.1541 125.701 74.5613 125.647 74.9414 125.538C75.3215 125.43 75.7015 125.28 76.0815 125.09C76.6969 124.774 77.4842 124.226 78.4434 123.448C78.733 123.222 78.9728 123.253 79.1629 123.543C79.3257 123.778 79.4072 124.049 79.4072 124.357C79.4072 124.873 79.3347 125.226 79.19 125.416C79.0543 125.597 78.8144 125.815 78.4706 126.068C78.1358 126.321 77.724 126.556 77.2354 126.774C76.0951 127.28 74.9776 127.534 73.8826 127.534C72.7876 127.534 71.9053 127.402 71.2358 127.14C70.5661 126.869 70.0005 126.484 69.539 125.986C68.5798 124.937 68.1002 123.506 68.1002 121.697ZM86.2223 126.475C85.8422 126.113 85.5436 125.656 85.3265 125.104C85.1093 124.543 84.9961 123.883 84.9871 123.122C84.9781 122.362 85.0686 121.593 85.2586 120.815C85.4577 120.036 85.7337 119.285 86.0866 118.561C86.4486 117.837 86.8784 117.159 87.3761 116.525C87.8829 115.892 88.4394 115.34 89.0457 114.869C90.3669 113.856 91.7378 113.349 93.1585 113.349C95.0227 113.349 96.2851 114.168 96.9456 115.806C97.4162 116.991 97.4434 118.425 97.0271 120.109C96.647 121.656 95.9503 123.077 94.9368 124.371C93.9323 125.665 92.7468 126.584 91.3804 127.127C90.6927 127.398 90.014 127.534 89.3443 127.534C88.6837 127.534 88.091 127.448 87.5661 127.276C87.0503 127.103 86.6024 126.837 86.2223 126.475ZM88.8149 119.892C88.5435 120.561 88.3263 121.249 88.1634 121.955C88.0096 122.661 87.9371 123.33 87.9462 123.964C87.9553 124.588 88.0503 125.081 88.2313 125.443C88.4213 125.796 88.7244 125.973 89.1407 125.973C89.557 125.973 89.9642 125.832 90.3623 125.552C90.7696 125.262 91.1632 124.883 91.5432 124.412C91.9233 123.941 92.2808 123.398 92.6156 122.783C92.9504 122.167 93.2446 121.525 93.4979 120.856C94.0499 119.398 94.3168 118.104 94.2988 116.973C94.2988 115.978 94.0951 115.344 93.688 115.073C93.525 114.964 93.2943 114.91 92.9957 114.91C92.7061 114.91 92.3713 115.045 91.9912 115.317C91.6111 115.58 91.231 115.937 90.851 116.389C90.471 116.842 90.1045 117.371 89.7515 117.978C89.3986 118.584 89.0864 119.222 88.8149 119.892ZM115.19 124.656C115.38 124.656 115.475 124.755 115.475 124.954C115.475 125.733 115.072 126.402 114.267 126.964C113.733 127.344 113.226 127.534 112.747 127.534C112.276 127.534 111.901 127.479 111.62 127.371C111.34 127.262 111.086 127.09 110.86 126.855C110.353 126.312 110.1 125.565 110.1 124.615C110.1 124.425 110.136 124.122 110.208 123.706C109.475 124.837 108.846 125.633 108.322 126.095C107.263 127.054 106.227 127.534 105.213 127.534C103.612 127.534 102.562 126.81 102.064 125.362C101.883 124.828 101.793 124.158 101.793 123.353C101.793 122.547 101.915 121.733 102.159 120.91C102.403 120.086 102.734 119.303 103.15 118.561C103.575 117.819 104.064 117.131 104.616 116.498C105.177 115.856 105.765 115.299 106.381 114.828C107.702 113.842 108.896 113.349 109.964 113.349C111.032 113.349 111.887 113.783 112.529 114.652C114.104 109.259 115.289 106.078 116.086 105.11C116.421 104.711 116.774 104.512 117.145 104.512C117.76 104.512 118.226 104.689 118.543 105.042C118.642 105.159 118.692 105.277 118.692 105.395C118.692 105.512 118.62 105.729 118.475 106.046C118.33 106.363 118.118 106.874 117.837 107.58C117.031 109.707 116.466 111.263 116.14 112.249C115.308 114.774 114.747 116.512 114.457 117.462L113.71 119.973C113.068 122.208 112.747 123.628 112.747 124.235C112.747 124.842 112.968 125.144 113.412 125.144C113.819 125.144 114.145 125.09 114.389 124.981L114.905 124.737C115.004 124.683 115.099 124.656 115.19 124.656ZM105.865 125.497C106.797 125.497 107.865 124.588 109.068 122.769C110.326 120.887 111.204 118.837 111.702 116.62C111.665 116.005 111.407 115.552 110.928 115.262C110.765 115.164 110.516 115.113 110.181 115.113C109.855 115.113 109.471 115.235 109.027 115.48C108.593 115.715 108.168 116.036 107.752 116.444C107.344 116.851 106.96 117.33 106.598 117.883C106.245 118.425 105.937 119.005 105.675 119.62C105.105 120.959 104.82 122.276 104.82 123.57C104.82 124.855 105.168 125.497 105.865 125.497ZM119.63 122.647C119.666 121.859 119.797 121.109 120.023 120.394C120.25 119.67 120.553 118.973 120.933 118.303C121.313 117.625 121.756 116.987 122.263 116.389C122.779 115.783 123.335 115.254 123.932 114.801C125.226 113.833 126.535 113.349 127.856 113.349C129.403 113.349 130.434 113.987 130.95 115.262C131.132 115.697 131.217 116.213 131.208 116.81C131.199 117.398 131.086 117.946 130.869 118.452C130.652 118.951 130.348 119.408 129.959 119.824C129.579 120.231 129.122 120.598 128.589 120.923C128.064 121.249 127.489 121.525 126.864 121.751C125.579 122.204 124.204 122.439 122.738 122.457C122.702 122.584 122.679 122.774 122.67 123.027C122.661 123.28 122.688 123.565 122.752 123.883C122.815 124.19 122.924 124.466 123.077 124.71C123.403 125.253 123.874 125.525 124.489 125.525C125.539 125.525 126.562 125.217 127.557 124.601C127.91 124.394 128.195 124.181 128.412 123.964C128.638 123.737 128.833 123.625 128.996 123.625C129.159 123.625 129.299 123.724 129.416 123.923C129.543 124.113 129.606 124.33 129.606 124.574C129.606 125.054 129.47 125.47 129.199 125.823C128.059 126.964 126.362 127.534 124.109 127.534C122.779 127.534 121.711 127.135 120.906 126.339C120.001 125.434 119.576 124.204 119.63 122.647ZM127.557 115.154C126.606 115.154 125.693 115.806 124.815 117.109C124.073 118.231 123.476 119.561 123.023 121.1C124.535 120.946 125.847 120.348 126.959 119.308C127.982 118.33 128.494 117.394 128.494 116.498C128.494 115.602 128.181 115.154 127.557 115.154ZM143.128 131.511C143.128 131.013 143.535 130.764 144.35 130.764C145.445 130.764 146.345 129.339 147.051 126.489L147.635 124.181C148.748 119.683 150.616 117.389 153.24 117.299C152.145 116.856 151.598 115.887 151.598 114.394C151.598 113.381 151.884 112.186 152.454 110.811C153.539 108.141 154.082 106.254 154.082 105.15C154.082 104.372 153.816 103.983 153.281 103.983C152.612 103.983 152.277 103.784 152.277 103.386C152.277 102.897 152.969 102.653 154.354 102.653C156.136 102.653 157.028 103.445 157.028 105.028C157.028 106.105 156.593 107.752 155.725 109.969L155.046 111.747C154.566 112.969 154.327 113.955 154.327 114.706C154.327 115.991 154.738 116.724 155.562 116.905C155.68 116.941 155.738 117.05 155.738 117.231C155.738 117.412 155.716 117.584 155.67 117.747C155.625 117.901 155.557 118.05 155.467 118.195C155.267 118.53 155.019 118.706 154.72 118.724C152.721 118.842 151.213 121.005 150.2 125.212C150.064 125.764 149.928 126.317 149.793 126.869C149.657 127.421 149.499 127.954 149.318 128.47C149.146 128.986 148.947 129.466 148.721 129.909C148.504 130.353 148.246 130.737 147.947 131.062C147.295 131.768 146.494 132.122 145.545 132.122C144.196 132.122 143.426 132.013 143.237 131.796C143.165 131.714 143.128 131.619 143.128 131.511Z" fill="white"/>
</g>
<g id="ItsTimeDark">
<path id="Vector_3" d="M42.6742 87.8122C44.2397 86.6629 45.8188 83.7039 47.4115 78.9349C48.3344 76.1568 48.977 73.6501 49.3389 71.415C49.4385 70.7906 49.4883 70.311 49.4883 69.9761C49.1172 69.9943 48.7734 70.0938 48.4566 70.2748L47.4386 70.8585C47.1581 71.0123 46.7825 70.8901 46.312 70.492C45.8505 70.0938 45.6378 69.759 45.674 69.4875C45.7193 69.207 45.8731 68.9808 46.1355 68.8088C46.407 68.6278 46.7192 68.474 47.0721 68.3473C47.8141 68.0849 48.4341 67.9537 48.9317 67.9537C49.4385 67.9537 49.8819 67.9944 50.2619 68.0758C50.6511 68.1482 51.004 68.2749 51.3207 68.4559C52.0446 68.8721 52.4157 69.4694 52.4338 70.2477C52.47 71.596 52.013 73.8854 51.0628 77.116C49.5606 82.2288 47.7961 85.8214 45.769 87.8937C45.217 88.4637 44.6424 88.8528 44.0452 89.061C43.8823 89.1243 43.7149 89.156 43.5429 89.156C43.38 89.156 43.2307 89.1243 43.095 89.061C42.9592 89.0067 42.8461 88.9343 42.7556 88.8438C42.5656 88.6719 42.4706 88.4819 42.4706 88.2737C42.4706 88.0656 42.5385 87.9117 42.6742 87.8122ZM63.1446 85.5046C63.407 85.5046 63.5383 85.6811 63.5383 86.034C63.5383 86.3327 63.4478 86.6222 63.2668 86.9027C63.0225 87.4276 62.5338 87.9253 61.8009 88.3958C60.9683 88.9297 60.1312 89.1968 59.2897 89.1968C57.8327 89.1968 56.9097 88.5452 56.5206 87.2421C56.0591 85.6947 56.7514 82.4143 58.5974 77.4011C57.5568 77.3106 56.9911 77.1296 56.9006 76.8581C56.8735 76.7767 56.8599 76.6907 56.8599 76.6002C56.8599 76.5006 56.9006 76.3876 56.9821 76.2609C57.0726 76.1341 57.1857 76.012 57.3215 75.8944C57.6382 75.6319 57.9594 75.5007 58.2852 75.5007H59.3575C60.3348 73.2113 61.0317 71.9082 61.4479 71.5914C61.647 71.4466 61.8687 71.3743 62.113 71.3743C62.3574 71.3743 62.5609 71.406 62.7239 71.4693C62.8867 71.5327 63.0315 71.6231 63.1582 71.7408C63.4478 72.0122 63.5926 72.3154 63.5926 72.6502C63.5926 72.8312 63.5383 73.0393 63.4297 73.2746L62.4252 75.46H62.751C63.3121 75.46 63.7645 75.4554 64.1083 75.4464C64.1083 75.4464 64.3663 75.4419 64.8821 75.4328C65.054 75.4238 65.2667 75.4193 65.5201 75.4193C65.7825 75.4193 65.9137 75.5143 65.9137 75.7043C65.9137 76.8988 64.502 77.4961 61.6786 77.4961H61.57L60.647 79.8851C59.6064 82.7084 59.086 84.6857 59.086 85.8168C59.086 86.1336 59.1585 86.3824 59.3033 86.5634C59.448 86.7354 59.7195 86.8213 60.1177 86.8213C60.5158 86.8213 60.8778 86.7534 61.2036 86.6177C61.5294 86.4819 61.8144 86.3327 62.0587 86.1697C62.303 85.9978 62.5112 85.844 62.6831 85.7083C62.8641 85.5725 63.0179 85.5046 63.1446 85.5046ZM66.9464 86.672C66.9464 86.3914 67.0052 86.1336 67.1229 85.8983C67.2495 85.654 67.4034 85.4504 67.5843 85.2875C67.9644 84.9345 68.3626 84.7581 68.7789 84.7581C69.1409 84.7581 69.3218 84.9436 69.3218 85.3146C69.3218 86.2558 69.634 86.9118 70.2584 87.2828C70.4846 87.4185 70.7199 87.4864 70.9643 87.4864C71.2086 87.4864 71.4167 87.4593 71.5887 87.4049C71.7605 87.3507 71.9189 87.2647 72.0637 87.1471C72.3895 86.8846 72.5524 86.5724 72.5524 86.2105C72.5524 85.8485 72.471 85.5182 72.308 85.2196C72.1452 84.9119 71.9416 84.5907 71.6972 84.2558L70.9236 83.17C69.8376 81.7221 69.2947 80.3873 69.2947 79.1656C69.2947 78.1521 69.7245 77.2337 70.5842 76.4102C71.5615 75.4781 72.8148 75.0121 74.3441 75.0121C75.6834 75.0121 76.7286 75.3423 77.4797 76.0029C78.0951 76.5368 78.4027 77.1476 78.4027 77.8354C78.4027 78.5503 78.1312 79.1204 77.5883 79.5457C77.0996 79.9258 76.611 80.066 76.1223 79.9665C75.9051 79.9212 75.7377 79.8127 75.6201 79.6408C75.5024 79.4598 75.4798 79.2561 75.5522 79.0299C75.6246 78.8037 75.6608 78.5684 75.6608 78.3241C75.6608 78.0798 75.6155 77.8535 75.525 77.6454C75.4346 77.4372 75.3124 77.2608 75.1585 77.116C74.8419 76.8174 74.507 76.668 74.1541 76.668C73.8102 76.668 73.5252 76.7088 73.2989 76.7902C73.0728 76.8626 72.8736 76.9712 72.7017 77.116C72.3488 77.4418 72.1723 77.8445 72.1723 78.3241C72.1723 78.7946 72.2538 79.2019 72.4166 79.5457C72.5795 79.8896 72.7786 80.2334 73.0139 80.5773C73.2582 80.9212 73.5206 81.2696 73.8012 81.6226C74.0817 81.9754 74.3396 82.3465 74.5749 82.7356C75.145 83.6496 75.43 84.4549 75.43 85.1517C75.43 85.8395 75.2853 86.4186 74.9957 86.8892C74.7061 87.3507 74.3306 87.7489 73.869 88.0836C72.8827 88.8167 71.7787 89.1832 70.557 89.1832C69.3897 89.1832 68.4667 88.9026 67.788 88.3415C67.2269 87.871 66.9464 87.3145 66.9464 86.672ZM108.227 70.5056C107.964 70.6956 107.657 70.8404 107.304 70.9399C106.96 71.0304 106.494 71.0757 105.905 71.0757C105.326 71.0757 104.571 71.0349 103.639 70.9535C103.421 71.5417 103.2 72.2294 102.974 73.0167L101.413 78.3377C99.485 84.7083 97.4309 88.2828 95.25 89.061C95.0961 89.1243 94.8971 89.156 94.6528 89.156C94.4175 89.156 94.2229 89.1243 94.0691 89.061C93.9243 89.0067 93.8022 88.9343 93.7026 88.8438C93.5035 88.6809 93.4039 88.518 93.4039 88.3551C93.4039 88.1923 93.4447 88.0836 93.5261 88.0294L93.8791 87.8122C95.1822 86.9615 96.3767 84.6992 97.4626 81.0253L98.4399 77.7133C99.3176 74.7361 100.137 72.3968 100.897 70.6956C100.182 70.6322 99.6389 70.6005 99.2679 70.6005C98.2001 70.6005 97.4309 70.7499 96.9603 71.0485C96.4989 71.3471 96.1731 71.6729 95.983 72.0258C95.802 72.3697 95.707 72.6095 95.6979 72.7453C95.6708 72.9986 95.5894 73.1615 95.4536 73.2339C95.3179 73.2972 95.1505 73.3289 94.9514 73.3289C94.7614 73.3289 94.5623 73.261 94.3541 73.1253C94.146 72.9805 93.9741 72.7995 93.8383 72.5823C93.5487 72.1389 93.4357 71.6412 93.499 71.0892C93.5623 70.5282 93.7433 70.0486 94.0419 69.6504C94.3497 69.2432 94.7116 68.9129 95.1279 68.6595C95.8971 68.189 96.707 67.9537 97.5575 67.9537C98.4172 67.9537 99.2272 67.9989 99.9873 68.0894C100.756 68.1708 101.521 68.2659 102.281 68.3744C104.299 68.646 105.584 68.7817 106.136 68.7817C106.688 68.7817 107.095 68.75 107.358 68.6866C107.629 68.6233 107.86 68.5283 108.05 68.4016C108.24 68.2749 108.371 68.1934 108.444 68.1573C108.525 68.1121 108.652 68.0894 108.824 68.0894C109.095 68.0894 109.213 68.2975 109.177 68.7138C109.141 69.121 109.041 69.4739 108.878 69.7726C108.715 70.0622 108.498 70.3065 108.227 70.5056ZM115.463 71.8358C115.263 72.0439 115.037 72.2158 114.784 72.3516C114.531 72.4783 114.264 72.5597 113.983 72.5959C113.702 72.6231 113.436 72.5778 113.182 72.4602C112.938 72.3426 112.725 72.1751 112.544 71.9579C112.155 71.5055 111.961 71.0485 111.961 70.587C111.961 70.1255 112.033 69.7816 112.178 69.5554C112.332 69.3201 112.522 69.13 112.748 68.9853C113.182 68.7047 113.589 68.5645 113.969 68.5645C114.359 68.5645 114.657 68.5917 114.865 68.646C115.082 68.7002 115.282 68.7907 115.463 68.9174C115.906 69.2161 116.128 69.5826 116.128 70.0169C116.128 70.4422 116.064 70.7996 115.938 71.0892C115.82 71.3697 115.662 71.6186 115.463 71.8358ZM112.68 86.5227C112.915 86.5227 113.033 86.6765 113.033 86.9842C113.033 87.3914 112.847 87.8122 112.476 88.2466C111.933 88.88 111.205 89.1968 110.291 89.1968C109.241 89.1968 108.522 88.7714 108.133 87.9208C107.988 87.6222 107.916 87.2602 107.916 86.8349C107.916 86.4096 107.988 85.939 108.133 85.4232C108.286 84.8983 108.472 84.3509 108.689 83.7808C108.915 83.2016 109.16 82.6179 109.422 82.0297L110.142 80.3195C110.666 79.0435 110.929 78.2019 110.929 77.7947C110.929 77.3875 110.884 77.1205 110.793 76.9938C110.712 76.8581 110.621 76.7541 110.522 76.6816L110.25 76.4916C110.16 76.4283 110.114 76.3197 110.114 76.1659C110.114 76.0029 110.173 75.8491 110.291 75.7043C110.418 75.5595 110.58 75.4328 110.78 75.3243C111.187 75.1161 111.662 75.0121 112.205 75.0121C113.535 75.0121 114.2 75.3605 114.2 76.0572C114.2 76.8717 113.988 77.8037 113.562 78.8534C113.137 79.8941 112.775 80.7357 112.476 81.3782L111.662 83.2514C111.065 84.6269 110.766 85.6178 110.766 86.224C110.766 86.6222 110.965 86.8213 111.363 86.8213C111.752 86.8213 112.046 86.7715 112.246 86.672C112.445 86.5724 112.589 86.5227 112.68 86.5227ZM128.684 77.5775C128.16 77.5775 127.2 78.3377 125.807 79.8579C124.766 81.0434 124.01 81.9348 123.54 82.532L122.318 84.0794C121.793 85.0748 121.382 85.9028 121.083 86.5634L120.35 88.138C120.16 88.5271 119.993 88.8031 119.848 88.966C119.712 89.1198 119.522 89.1968 119.278 89.1968C119.043 89.1968 118.812 89.1515 118.586 89.061C118.369 88.9795 118.179 88.871 118.016 88.7352C117.671 88.4456 117.5 88.1289 117.5 87.785C117.5 87.6493 117.599 87.3823 117.799 86.9842L118.315 85.8847C118.477 85.5589 118.667 85.1427 118.884 84.6359L119.644 82.7763C120.712 80.1068 121.246 78.3829 121.246 77.6046C121.246 77.1884 121.111 76.8807 120.839 76.6816L120.567 76.4916C120.477 76.4283 120.432 76.3197 120.432 76.1659C120.432 76.0029 120.491 75.8491 120.608 75.7043C120.735 75.5595 120.898 75.4328 121.097 75.3243C121.504 75.1161 121.911 75.0121 122.318 75.0121C122.735 75.0121 123.06 75.0573 123.296 75.1478C123.531 75.2383 123.735 75.3605 123.907 75.5143C124.25 75.831 124.423 76.1613 124.423 76.5052C124.423 76.849 124.377 77.1975 124.287 77.5504C124.196 77.8942 124.083 78.2472 123.947 78.6091C123.812 78.962 123.667 79.306 123.513 79.6408C123.151 80.419 122.925 80.8986 122.834 81.0795C122.753 81.2515 122.73 81.3148 122.766 81.2696C124.423 79.1249 125.418 77.8581 125.752 77.469C126.45 76.6636 126.993 76.1115 127.382 75.8129C128.096 75.279 128.771 75.0121 129.404 75.0121C130.047 75.0121 130.558 75.2111 130.938 75.6093C131.318 76.0075 131.508 76.5324 131.508 77.1839C131.508 77.754 131.363 78.4236 131.074 79.1928C130.784 79.962 130.589 80.5004 130.49 80.8081L132.485 78.1748L133.598 76.8446C134.268 76.0934 134.856 75.6002 135.363 75.3649C135.87 75.1297 136.281 75.0121 136.598 75.0121C136.924 75.0121 137.24 75.0709 137.549 75.1885C137.865 75.3062 138.132 75.4736 138.349 75.6907C138.81 76.1341 139.041 76.7224 139.041 77.4554C139.041 78.1612 138.878 78.8851 138.553 79.6272C138.227 80.3692 137.942 80.98 137.698 81.4596C137.454 81.9302 137.218 82.4053 136.992 82.8849C136.332 84.3237 136.001 85.3915 136.001 86.0883C136.001 86.577 136.2 86.8213 136.598 86.8213C136.978 86.8213 137.322 86.7399 137.63 86.577C137.946 86.4141 138.15 86.3327 138.24 86.3327C138.43 86.3327 138.525 86.4277 138.525 86.6177C138.525 87.4231 138.114 88.0972 137.291 88.6402C136.738 89.0112 136.232 89.1968 135.77 89.1968C135.318 89.1968 134.951 89.1424 134.671 89.0338C134.39 88.9253 134.137 88.7533 133.911 88.518C133.404 87.9932 133.15 87.3371 133.15 86.5498C133.15 85.7626 133.25 85.0386 133.449 84.378C133.648 83.7174 133.884 83.0795 134.155 82.4641C134.426 81.8397 134.698 81.2696 134.969 80.7538C135.25 80.229 135.463 79.8127 135.607 79.505C135.897 78.8716 136.042 78.4055 136.042 78.1069C136.042 77.754 135.856 77.5775 135.485 77.5775C134.996 77.5775 134.118 78.3874 132.852 80.0073C131.893 81.2651 131.227 82.17 130.857 82.722L129.92 84.0794C129.395 85.0748 128.993 85.9028 128.711 86.5634L128.02 88.138C127.847 88.5271 127.698 88.8031 127.572 88.966C127.445 89.1198 127.268 89.1968 127.042 89.1968C126.816 89.1968 126.594 89.1605 126.377 89.0881C126.169 89.0158 125.988 88.9207 125.834 88.8031C125.481 88.5406 125.304 88.2646 125.304 87.9751C125.304 87.6765 125.399 87.2738 125.589 86.767C125.789 86.2512 126.033 85.6766 126.323 85.0431L128.223 81.0253C128.901 79.5321 129.241 78.5865 129.241 78.1883C129.241 77.7811 129.056 77.5775 128.684 77.5775ZM130.028 81.4053C130.037 81.4053 130.042 81.4008 130.042 81.3917L130.056 81.3646C130.037 81.3827 130.028 81.3963 130.028 81.4053ZM143.617 84.3101C143.653 83.5229 143.784 82.7717 144.01 82.0569C144.237 81.333 144.54 80.6361 144.92 79.9665C145.3 79.2878 145.743 78.6498 146.25 78.0526C146.766 77.4463 147.322 76.9169 147.92 76.4645C149.214 75.4962 150.521 75.0121 151.843 75.0121C153.39 75.0121 154.422 75.65 154.938 76.926C155.118 77.3603 155.204 77.8761 155.196 78.4734C155.186 79.0616 155.073 79.609 154.856 80.1158C154.639 80.6135 154.335 81.0705 153.946 81.4868C153.566 81.894 153.11 82.2605 152.576 82.5863C152.05 82.9121 151.476 83.188 150.852 83.4143C149.567 83.8667 148.191 84.102 146.725 84.1201C146.689 84.2468 146.667 84.4368 146.657 84.6902C146.648 84.9436 146.675 85.2287 146.739 85.5453C146.803 85.8531 146.911 86.129 147.064 86.3734C147.39 86.9163 147.861 87.1878 148.477 87.1878C149.526 87.1878 150.549 86.8802 151.544 86.2648C151.897 86.0566 152.182 85.844 152.399 85.6268C152.626 85.4005 152.82 85.2875 152.982 85.2875C153.145 85.2875 153.286 85.387 153.403 85.5861C153.53 85.7761 153.593 85.9933 153.593 86.2376C153.593 86.7172 153.458 87.1335 153.186 87.4864C152.047 88.6266 150.349 89.1968 148.096 89.1968C146.766 89.1968 145.698 88.7985 144.893 88.0022C143.988 87.0973 143.562 85.8666 143.617 84.3101ZM151.544 76.8174C150.594 76.8174 149.68 77.469 148.802 78.7721C148.06 79.8941 147.463 81.2243 147.01 82.7627C148.521 82.6089 149.833 82.0117 150.947 80.971C151.969 79.9937 152.481 79.0571 152.481 78.1612C152.481 77.2653 152.169 76.8174 151.544 76.8174Z" fill="white"/>
</g>
</g>
</g>
</g>
<defs>
<filter id="filter0_d" x="50.0536" y="40.471" width="98.9541" height="123.83" filterUnits="userSpaceOnUse" color-interpolation-filters="sRGB">
<feFlood flood-opacity="0" result="BackgroundImageFix"/>
<feColorMatrix in="SourceAlpha" type="matrix" values="0 0 0 0 0 0 0 0 0 0 0 0 0 0 0 0 0 0 127 0"/>
<feOffset dy="2"/>
<feGaussianBlur stdDeviation="2"/>
<feColorMatrix type="matrix" values="0 0 0 0 0.913725 0 0 0 0 0.294118 0 0 0 0 0.235294 0 0 0 0.5 0"/>
<feBlend mode="normal" in2="BackgroundImageFix" result="effect1_dropShadow"/>
<feBlend mode="normal" in="SourceGraphic" in2="effect1_dropShadow" result="shape"/>
</filter>
<filter id="filter1_d" x="38.4706" y="65.9537" width="122.557" height="72.1683" filterUnits="userSpaceOnUse" color-interpolation-filters="sRGB">
<feFlood flood-opacity="0" result="BackgroundImageFix"/>
<feColorMatrix in="SourceAlpha" type="matrix" values="0 0 0 0 0 0 0 0 0 0 0 0 0 0 0 0 0 0 127 0"/>
<feOffset dy="2"/>
<feGaussianBlur stdDeviation="2"/>
<feColorMatrix type="matrix" values="0 0 0 0 1 0 0 0 0 1 0 0 0 0 1 0 0 0 0.3 0"/>
<feBlend mode="normal" in2="BackgroundImageFix" result="effect1_dropShadow"/>
<feBlend mode="normal" in="SourceGraphic" in2="effect1_dropShadow" result="shape"/>
</filter>
</defs>
</svg>
